<mxfile host="app.diagrams.net" agent="Mozilla/5.0 (Windows NT 10.0; Win64; x64; rv:131.0) Gecko/20100101 Firefox/131.0" version="24.8.3">
  <diagram name="Страница — 1" id="W482lYkjSr9_uHadd2C8">
    <mxGraphModel dx="989" dy="527" grid="1" gridSize="10" guides="1" tooltips="1" connect="1" arrows="1" fold="1" page="1" pageScale="1" pageWidth="827" pageHeight="1169" math="1" shadow="0">
      <root>
        <mxCell id="0" />
        <mxCell id="1" parent="0" />
        <mxCell id="pNY5TVdKX-9zsxYdDqCT-5" value="&lt;h1 style=&quot;margin-top: 0px;&quot;&gt;Стержень Бернулли-Эйлера&lt;/h1&gt;&lt;p&gt;Классический стержень, работающий на растяжение-сжатие/изгиб.&lt;/p&gt;&lt;p&gt;По идее это должен быть аналог КЭ типа 5 &lt;span style=&quot;background-color: rgb(255, 128, 64);&quot;&gt;(но тут я не уверен)&lt;/span&gt;&lt;br&gt;&lt;/p&gt;" style="text;html=1;whiteSpace=wrap;overflow=hidden;rounded=0;" vertex="1" parent="1">
          <mxGeometry x="180" y="30" width="450" height="110" as="geometry" />
        </mxCell>
        <mxCell id="pNY5TVdKX-9zsxYdDqCT-6" value="" style="shape=image;verticalLabelPosition=bottom;labelBackgroundColor=default;verticalAlign=top;aspect=fixed;imageAspect=0;image=data:image/png,iVBORw0KGgoAAAANSUhEUgAABaEAAAFRCAYAAABt42FZAAAgAElEQVR4Xuy9X4glS37nFxpZSKvd0Vhjg68saNWWXCr0pJVoWJg115c2qG1TT4UQQo17l35QIWHVoH6axg9TBpleBKpdFZaYlqBltyk9ll5qLDXIzeViGRsai9WAoFSrorgP9hjkGUvMakfIMM5/kScy/mdGnHMiT35aLDu3TkbkLz6/X0ZGfvOXv/iu71T/RPfvb//2b8U3v/lN8Td/8zfyT/z/EIAABCAAAQhAAAIQgAAEIAABCEAAAhCAAAQgAAEnge///u8XP/iDPyi+93u/13rMd0kR+u7uTnz2s59t/t/3fd/3gVQjUPPZ39+HCwQgAIEiCDAnFeEGjFgjAWJ8jXDpGgIzJ8D8MHMHYj4EIAABCEAAAjtJ4K//+q/FX/7lX4of/uEftgrRAxEakdUdAyx2d/L6YFAQmC0B5qTZug7DIwkQ45GgOAwCCyTA/LBApzNkCEAAAhCAAARmQaAWousKGx988IFhby9C/8Vf/IX40R/90VkMaBtGstjdBnXOCQEIuAgwJxEbu06AGN91DzM+CEwnwPwwnR0tIQABCEAAAhCAwLoJuNZqZEJHkmexGwmKwyAAgY0QYE7aCGZOskUCxPgW4XNqCBROgPmhcAdhHgQgAAEIQAACiyaACJ3ofha7iQBpDgEIZCXAnJQVJ50VSIAYL9ApmASBQggwPxTiCMyAAAQgAAEIQAACFgKI0IlhwWI3ESDNIQCBrASYk7LipLMCCRDjBToFkyBQCAHmh0IcgRkQgAAEIAABCEAAETp/DLDYzc+UHiEAgekEmJOms6PlPAgQ4/PwE1ZCYBsEmB+2QZ1zQgACEIAABCAAgTgCZELHcXIexWI3ESDNIQCBrASYk7LipLMCCRDjBToFkyBQCAHmh0IcgRkQgAAEIAABCEDAQgAROjEsWOwmAqQ5BCCQlQBzUlacdFYgAWK8QKdgEgQKIcD8UIgjMAMCEIAABCAAAQggQuePARa7+ZnSIwQgMJ0Ac9J0drScBwFifB5+wkoIbIMA88M2qHNOCEAAAhCAAAQgEEeATOg4Ts6jWOwmAqQ5BCCQlQBzUlacdFYgAWK8QKdgEgQKIcD8UIgjMAMCEIAABCAAAQhYCCBCJ4YFi91EgDSHAASyEmBOyoqTzgokQIwX6BRMgkAhBJgfCnEEZkAAAhCAAAQgAAFE6PwxwGI3P1N6hAAEphNgTprOjpbzIECMz8NPWAmBbRBgftgGdc4JAQhAAAIQgAAE4giQCR3HyXkUi91EgDSHAASyEmBOyoqTzgokQIwX6BRMgkAhBJgfCnEEZkAAAhCAAAQgAAELgQJF6E/FmyfH4uKmtfbo/L04+7D6H5++EU+OL8SNOBLn78/Eh2J4XHVk9/fN+pnF7mZ5czYIQMBPgDmJCNl1AsR4iof1tZPS1+GpuLp8Kh6kdE9bCGyZAPPDlh3A6SEAAQhAAAIQgICHQPEitJAPRZoILc4eiufXh+L06lI8ffBJ9Z/PxfUWHqBY7HJ9QQACJRFgTirJG9iyDgLEeApVRYQ+Ohfvm7f83Rqq+l+Hp1fi8ikydAph2m6XAPPDdvlzdghAAAIQgAAEIOAjUL4IXVnfZEPvqZnQj8Q7TXT+ZCBKb87pLHY3x5ozQQACYQLMSWFGHDFvAsR4iv9sIrRfmO6/SFNP+8mZePj8ul6htV+h9YkCMjmg/oDtiTiuP2uTCQLONspXb/U5+r6G4+wFcsfv6hdx/bkNVMOv5szjlN/V8/SCfSXZN+vNumMtEUKuV2td38eq+8177hQXL7wt88PCA4DhQwACEIAABCBQNIGiReijoyNxfd095Fzti1d9OQ5E6KKjCuMgAIGtEeABfGvoOfGGCBDjKaBjBedVdvS6ROj2i7Z2LPIcK2F2KBbXwu+r/S5LWy/P5vxvRdzWBXClpFsvbntE8t7GPiGi/stUEXrlA+e5U1y88LbMDwsPAIYPAQhAAAIQgEDRBMoWoasM6Efv2oeUw0qQrhTpviY05TiKjiuMgwAEtkSAB/Atgee0GyNAjKeg9tSEHuytsRKhh2frhNf7xEzoPrFAFaEjy4LkEKEtmdtqWZLhF3gdgSqj+/TgQlzcHorDm5tqPWqK0FNZGefWs6lTXL6wtswPC3M4w4UABCAAAQhAYFYEihehV2U4JFc2JpxVhGEsBCCwUQI8gG8UNyfbAgFiPAW6LRO66q/PAnZn9/ZlKOryGid34thajmNVV9pdjqMScQ8rEffgSBxVyQXN926DsmtaeQ59uFJAduwZ0ui3oZId/XjtLIf2VExOD8TFRZu2fXR+LsTzah8STya0l1XMuRGhJwc588NkdDSEAAQgAAEIQAACaydQvghdLcRX9fea5X9bf3DtaOJOwGI3jhNHQQACmyHAnLQZzpxlewSI8RT2DhFaEW3b0hhmOY5BqYxGh1VqQje6b1cDWjfPqAkt13JdabVG2LWf0zpSKeLKOs16ZnTdSM90jsjcNs6l9bH3uvoyT9SbOYp2M2yPCO1lZc3CTvEpbVUCzA/EAwQgAAEIQAACECiXwCxE6GFGi74JzgqutW7hmtmz2F0zYLqHAARGEWBOGoWLg2dIgBhPcZpdhDZrMZsidJ8QUIu/j94NNya0mOTOhJbZ0vedmBuuCV339UK8FJdPH/SJCf2azxChLWP01ISuFPBKWJapDXXbF0K8vBRPhdwQe7XZYjtMySYia9zKyvEioKlT3Z37QYqPl92W+WHZ/mf0EIAABCAAAQiUTWAeInTF0LVZzbbxstjdtgc4PwQgoBJgTiIedp0AMZ7i4dSa0F0igCHqmja5RWj5RZtj80NHKY3D0/9OPH77X4mLm+pcqnCsidCrDQ+VL+cc9tqztztxeYIIPaTgZ+U9NyL05CBnfpiMjoYQgAAEIAABCEBg7QQKFKHXPuasJ2CxmxUnnUEAAokEmJMSAdK8eALEePEuwkAIbI0A88PW0HNiCEAAAhCAAAQgECSACB1E5D+AxW4iQJpDAAJZCeSck5w1XmuLB5+wZx0CnUHASyBnjIMaAhDYLQLMD7vlT0YDAQhAAAIQgMBuEUCETvQni91EgDSHAASyEsg5J/UidC84u2qZZh0CnUEAEZoYgAAEJhHIeQ+cZACNIAABCEAAAhCAAAScBBChE4ODxW4iQJpDAAJZCeSckwYbkTUbd/k21Dpua7XKf4en4uryqWhLm65qv5qDreuvvhTiRddey7DubVD7c9aMvRInd8fi+bUNaVfn9f5suKGa0lez0dme3Iys6kOxpbdDuDcjG5zVqEEbYlBthPZAqZF7dCSur1cD6Tdh0/v12a8YtNq411KHt+9Djs1VN1ipsWu0qbx89rBlb9uMTbdT7gM3IfpzxviE09MEAhAomADzQ8HOwTQIQAACEIAABBZPABE6MQRY7CYCpDkEIJCVQM45SYqKh6dX4vJpLSfbROjV3+RxxoZkigjdi6G6iKmLw5p4Ldu5NqmtbX21L+2sdW9NbJaUtb+vNjGrtVNNhG70VP1v6SK0k4EiQvcCeG+vXUS32v9CiJfyBYDeXhW667E17xak8C7HZoak4VO9Tb+Jm12ENuxEhM563dMZBCDQEsh5D4QpBCAAAQhAAAIQgEBeAojQiTxZ7CYCpDkEIJCVQL45aSUur7JoLSK0IXLWw9Gzbcdl3/ait+y7z4Je9bMSxh34YkToq33x6vhCyARumwgtqnOfHlyIi9tDcXhzUx1ritBDCxwZ1zFCvE0g1tsJRVy32a+Lu56MbLcY3o5olf2tjrDLhtZE6L3XdRa0ImKr542xc8RVkC/GR5yUQyEAgVkQYH6YhZswEgIQgAAEIACBhRJAhE50PIvdRIA0hwAEshLINidZs2NNEdqemayLxfdVIuxz0VZq8GTfaqLzfVfeoRecx5R0CIrQlah8WInKB0fiqCp70dvWl+OoBNXTA3Fx0ZbEODo/F+J5PQZ3JvSgdMjJnThua1OI8/dn4sMMInTDYe91V07EYX8jQmulP0aVRhmWBTEzsnURWglf9TzKywkrZzKhs173dAYBCLQEst0DAQoBCEAAAhCAAAQgkJ0AInQiUha7iQBpDgEIZCWQbU6yirjrzIRWxdNa6D0Rd8e16KvUIbYJuS56QRG6kZYrgfiReKcK5KoIfXUpmgxfcS4qHbkT0t0i9ECQbzTrvCJ0I+D3mdAO+3Vx1xDuI7LSbaVRnLWoKx7nj8Xb521GuVm7OtLOEVdBthgfcU4OhQAE5kGA+WEefsJKCEAAAhCAAASWSQAROtHvLHYTAdIcAhDISiDPnBSxAWG/aV+mmtDtDoZVeeIn4ljZ4VAvu+GqCV3//YV42dWurjqKEKHbvrUsbU2EbkphN/+keBuRCW3bmG9iJrQx3n5coqoUYtr/7F7jMEWE7us7r8prGHZomfIffSz91r00CNjZ1KKe+C9PjE88Oc0gAIGiCTA/FO0ejIMABCAAAQhAYOEEEKETA4DFbiJAmkMAAlkJ5JiT7LWATTOtGxbKwxwlIEJ1iIelJBwb5SnCqmrVQLAOitCOMhkTROghGV2EnVaOw9pno4XrGy4OM5trEVoV8WU/q7reEZnQlfBuvAw4PBQ3VU3svryIUa5FeXFR+z6mHMnEyM8R4xNPTTMIQKBwAswPhTsI8yAAAQhAAAIQWDQBROhE97PYTQRIcwhAICuBHHOSFKFdm/+Ffk8bkCsLO63XebS2CMTzMHyjVuaI8Y0azMkgAIGNEWB+2BhqTgQBCEAAAhCAAARGE0CEHo1s2IDFbiLASc3dItVgY7DLp6L/kn7SeWgEgfkRyDEnhUTm0O9J1MZsPph0ohIbI0LHeCVHjMech2MgAIH5EWB+mJ/PsLgUAjxfleIJ7IAABCCwywQQoRO9y2I3EeCk5iySJmGj0SIIzHtO0ko6LO5FEiJ0zEU67xiPGSHHQAACUwkwP0wlRzsI8HxFDEAAAhCAwPoJbFyEdtca7Wp/3mv1Lj2bKpl4ZP1Q5SY6OEjW5swHlsVuPpbxPY1ZJEXEgl5jVY+5vkZsZWG/GVtdmvWheH5dWz2sW6vXUu1rqDYDjKvHWlVkFW+eHAtlf7Z6FzJx1YtyrnHJzcrqHPCIscfYE7wmW8/5xx3vXY5MI8CclMaP1uUTIMbX5aOY+9O4+4p7naac6+hIXF83N9Pm36p+ue2+0h8lzt+fiT25kWl/f9Q3EF3dq9XyQsn36Yj7onmOoe0Je3OuKwB2ol/mh51wI4PYCoHMz1eO/TvG7VERcc8x9qhQ7h2DZ6fQs0rEPTBi7h/9TBR6DjVuFjHPgI0V/mfJkH/U34PPv/5z9ffD6Hu1tml4zcDi5+AY5XXk2Uvm5O64e57XL7pYbWorFysnhcCsCWxchO5pRW4aJXqhTz6YRNwgLDUYzMkvj99Y7ObhOK6XMYsks2cjFrRYNGJOFaHlA/Lgb+bLj/5hN7CJ2Jn1proan+zHjN/VMXIxt3rgdb9scS8ClAd//SavLbjMa9K019w8bZyHOXo6Aeak6exoOQ8CxPi6/JRrfRXTz+qY/uVuf7/s7qnijXhyfCGa7TDP34vmfmlbO3Z/a++X8sF1+PBo20Q16T4dui8qawSv7ety5YL7ZX5YsPMZeiKBzM9X9fPECyFeygQafY5/EHOviHiOixKhY55VIuwJzf0fxpxHG1PoOdQjQrufASOeJUP+Ue7BtcXNuSKff626y6h7dYQvHkSMsdGu5Ybdw+fjOpns1X69buiEo8naVOJlR3MILJBA2SL01b541T2A9JPfhzGTUutJe9Z13mxoFrvbuGrcb4B7a7Q3395YUG86tpjTROg6I/n04EJc3B6Kw5ub6gFZf2BWM6P1eI2I336B4+vHI0KPGfvYTGgvH5+924iTZZ6TOWmZfl/SqInxdXk74v7UP6vJL4FUW+T6KqYfW+kZ7W/RQq5sV5//kXj38Lm4bu7LL4V4UX9RpKz7rJlUKffpqu/AugERel3xau+X+WGzvDnbLhHI/Hylo5mUmBPxTB8jQm987h/xTBR6Dh0jQstnQEPwb5SRKo+ovj8Ovzjq3eTJyG6OcT3/Rj23quePuFePej6Ne+52bbbuHL/8YbR/dmlOYCwQWA+BgkXoSuA7rAS+gyNxVH2muZowxz3cmBk2iNDrCaVN9jrmTb0v26qLBeVGbY25/kG4usmdHoiLi/az4aPzcyGey4fdS/G0vwnbWbQPooo9xmHtTfSjj21vbFft2puoMD+x6vpb3WQjxq7c5E2r9c+QHNekkCV0fOPeZHws+1w8gC/b/0sYPTG+Li+H709Plcw19/pq3DrN9ml2fx9zfEI7LHPlSjrob4qrUlb9/T7tPr2637vWqlX/kbavy5tL7Zf5YameZ9zpBDI/XzUGafeVQaJMpnuOMtc6vyDd1Nw/5Zko9Bw6oRyHPftXf5as3yp7/KMK957n37jn1vYNtrssa/XjyNiIOu9HH5tfVLkulGAmtOd+n37x0QMEFkWgYBG69oP6pmxEOQ69XlM764mHTQFfROj5R/iIRZLn090+FgYLE0vMqSJ0JRLvva4ywMS5qMpRdm+UfZnQOu2Ih/OoN8pmJrT6wNs81PcLISXmp2QhDMT1MB/5VdP842yeI+ABfJ5+w+p4AsR4PKtxR465PyXeV2yfYY/KfLKdv74Xn4i7Y/lyWP5vT7kpS/m2qL0bQvdFW6kt29p0nIM4OoIA80MEJA6BgJVA5ucr/RyefZ76l5GBkoCNHmt5tnPW4JfCpjUTOuUZzaFTaM+MUc9EoefQiExo9zPgiIxs555IbR/O59+o51bVbxH36lHrgbhMaHW/CWv4B0VolzbFdAIBCIwlULQIPazvN0KE7msYrSalmHq5Y+HVx7PYnUIttc2IRZLvEy35QkK5+Vtjzrmg0DdActlV/70piibULDLngiuqxlWECG2x27wOxogOctNDfbOImHGn+pz2sQSYk2JJcdxcCRDj6/JcxP0gan0V0Y9FhDbvT5Z7i/GQqB8zfDlsZkrF3K8i7FdEaPtaNcb2dflx2f0yPyzb/4w+hUDe56t649gX4uWq5u4UETrqnmOO2beXjrrJfLux3YhntClzf2Oeeh7N3tBz6BQR2lKbWmdSDdzvnwnPvzF7GbX8Q/fqiPtw1POyuyZ0zWMQnxEitP1+n3LN0RYCyyRQsAjtqi0YMymZu98eHh6Km6p+L5nQuxDoIxZJ9W2/35CgHbsRC6Hs4OibcNu//W28fCESF7/h3X49dduUHYyDYx/1ptlT7zM47l2Iu3mMgQfwefgJK6cTIMans/O3jLs/ZbmvqGU9BkatMpxXn+26s65XG+Xq9yfznqsKD8n3aSOrecju0TtZM9uXMb4uPy67X+aHZfuf0acQyPt8VYvQxxf1s/fwn60EkzsxJ+I5zjJk68Z4wWeViHtgYO5vNtANnkczOPQcOqIchymw1/siKOdTSl64ssd9vmh70pOwmhGbZSKVc5n3c70PvYSkFKlDXzL5z9uP3FEea1AnOihC+5+DU6482kJgaQS2J0LvCGkWuzviSIYBgR0hwJy0I45kGE4CxPguBEdgg6RdGCJj2AoB5oetYOekEIAABCAAAQhAIIoAInQUJvdBLHYTAdIcAhDISoA5KStOOiuQADFeoFNGm4QIPRoZDaIIMD9EYeIgCEAAAhCAAAQgsBUCiNCJ2FnsJgKkOQQgkJUAc1JWnHRWIAFivECnjDYJEXo0MhpEEWB+iMLEQRCAAAQgAAEIQGArBBChE7Gz2E0ESHMIQCArAeYkD05PTbiTu2Px/Lpta9bDa/5YbaTSFuYz6+gpdV/VcyhtVvXwPPXhVdNdtemyRss8OyPG5+k3rIbAJggwP2yCMueAAAQgAAEIQAAC0wggQk/j1rdisZsIkOYQgEBWAsxJdpwr4VgRjKtDa3H41f5Vs3v7cCObj8THT9oNXVYbl6w2QOn/povFmtDdCNr95qa1bYjQqQFPjKcSpD0EdpcA88Pu+paRQQACEIAABCAwfwKI0Ik+ZLGbCJDmEIBAVgLMSTacq0//BzthWw5dZSx3PyrZzJVKLZ4cX4ibXkiuj9HKCgwE51pzPhWnBxfi4vZQHN7cKG2VncAHdnQitbEDe9YwmXVnxPis3YfxEFgrAeaHteKlcwhAAAIQgAAEIJBEABE6CZ8QLHYTAdIcAhDISoA5yYJTyU7uS204qa+ynasaHOL8/Zloi3DUevOZeChrdljaD7OeKzH59EBcXLQ1Po7Oz4V4/lxcezKhewG8Eq6vTu7EcXMuzYas0TLPzojxefoNqyGwCQLMD5ugzDkgAAEIQAACEIDANAKI0NO49a1Y7CYCpDkEIJCVAHOSDWf8JmhGJnQtCF8+FQ/qbq2Z0Nr5tGP2Xj8Uz0VdT1qIs4d+EXpQMqTRrBGhbd4kxrNOGXQGgZ0iwPywU+5kMBCAAAQgAAEI7BgBROhEh7LYTQRIcwhAICsB5iQ7TldN6PrvL8TL0TWh1Y0KK3VavHnyQoiXl+KpsJXsqG2SQri7JnQvgNclQB6967KuyYTWPUqMZ50y6AwCO0WA+WGn3MlgIAABCEAAAhDYMQKI0IkOZbGbCJDmEIBAVgLMSR6c2qaB8si6TvTJ3bFoK21IkbjWjZXyG0pt6JWgrZ6razdBhB5a3InO+oaHWaNk3p0R4/P2H9ZDYJ0EmB/WSZe+IQABCEAAAhCAQBoBROg0ftSETuRHcwhAIC8BHsDz8qS38ggQ4+X5BIsgUAoB5odSPIEdEIAABCAAAQhAwCRQmAhtq9u52iSqzla7fPqgSk6ramy2ez2t/ql1OzfoaRa7G4TNqSAAgSAB5qQgIg6YOQFifOYOxHwIrJEA88Ma4dI1BCAAAQhAAAIQSCRQvAgtBeej8/fi7MNqtN0nylKQrse/+jRa+Yw6EUxscxa7saQ4DgIQ2AQB5qRNUOYc2yRAjG+TPueGQNkEmB/K9g/WQQACEIAABCCwbAKFi9AyM1rZmKkSoZv/qwVp5V+fHb3hjGgWu8u+gBg9BEojwJxUmkewJzcBYjw30cT+9PrlSu31PoGgP8Xq67bh5p51jkH3lZu6jvPUcb/cez3cvNN2Xkd7IRy11y192GvA1wNi09DEyFlLc+aHtWClUwhAAAIQgAAEIJCFQNEi9KN37QOJmvXsHHX/ELTZbGgWu1nikE4gAIFMBJiTMoGkm2IJEOOFuUYToYVSMs0UoSvbrZtumuXYVuLvUOytxepX+1V5Nk2Etp63F5W7PvT/Dtm+90Y8Ob4QN7XkrH2RhwhdWBx25jA/lOkXrIIABCAAAQhAAAI1gWJF6N49jsxma13ophEiNKENAQgslwAP4Mv1/VJGTowX5mlVyL3aF6860ba20ipCC3Ovj16Y7td8K1HamYgQc94xIrTNdkTowoItbA7zQ5gRR0AAAhCAAAQgAIFtEShWhD46OhLX1+3ug2RCbys8OC8EIDA3AjyAz81j2DuWADE+ltiaj1e+RDs8vBE3B0fiqFq/1Ss4uwhd/SDbdKLzfZc93a/3vCU9uvHEnFf2I8VtZyb0oXDaHirpsWa8dD+OAPPDOF4cDQEIQAACEIAABDZJoFwRuvrsUZbjULObP31zJj7+6Ew8fTDERE3oTYYN54IABEolwAN4qZ7BrlwEiPFcJDP104vBdX912YtH4t3D534RWshM5/rrtRNxd1wfr5bdMMtzGNbGnFcec3Qu3tebiThFaI/tfZvuS7v7s2Et6kwY6SYPAeaHPBzpBQIQgAAEIAABCKyDQNEi9NmHq4cQWXtv780TcXxxM8iuWdUN3GwpjtohLHbXEZb0CQEITCXAnDSVHO3mQoAYL8xTihjcZjLfV+WZQyJ0rQe36zn5T//qzVUTuv77C/FSqQktv5gzzysTFPqMbI8IbbfdspGitaZ1YT5ZsDnMDwt2PkOHAAQgAAEIQKB4AoWL0BU/NdOl+ZzyI/Hxk2OhPLe0kGWWy4aRs9jdMHBOBwEIeAkwJxEgu06AGC/Mw4YoG5HF3AxBTTRwJBE4SmE0grG2MeGHSn9H51di/1W3VlTXh4GNCYd9qF/kKVnaiNCFBeDQHOaHot2DcRCAAAQgAAEILJxAYSL0/LzBYnd+PsNiCOwyAeakXfYuY6sJEOO7EgeWLONdGRrj2BoB5oetoefEEIAABCAAAQhAIEgAETqIyH8Ai91EgDSHAASyEmBOyoqTzgokQIwX6JQpJsVsPjilX9osmgDzw6Ldz+AhAAEIQAACECicACJ0ooNY7CYCpDkEIJCVAHNSVpx0ViABYrxAp4w2ScmCbkqtPRXaftOje6QBBGoCzA/EAQQgAAEIQAACECiXACJ0om9Y7CYCpDkEIJCVAHNSVpx0ViABYrxAp2ASBAohwPxQiCMwAwIQgAAEIAABCFgIIEInhgWL3USANIcABLISYE7KipPOCiRAjBfoFEyCQCEEmB8KcQRmQAACEIAABCAAAUTo/DHAYjc/U3qEAASmE2BOms6OlvMgQIzPw09YCYFtEGB+2AZ1zgkBCEAAAhCAAATiCJAJHcfJeRSL3USANIcABLISYE7KipPOCiRAjBfoFEyCQCEEmB8KcQRmQAACEIAABCAAAQsBROjEsGCxmwiQ5hCAQFYCzElZcdJZgQSI8QKdgkkQKIQA80MhjsAMCEAAAhCAAAQggAidPwZY7OZnSo8QgMB0AsxJ09nRch4EiPF5+AkrIbANAswP26DOOSEAAQhAAAIQgEAcATKh4zg5j2KxmwiQ5hCAQFYCzElZcdJZgQSI8QKdgkkQKIQA80MhjsAMCEAAAhCAAAQgYCGACJ0YFix2EwHSHAIQyEqAOSkrTjorkAAxXqBTMAkChRBgfijEEZgBAQhAAAIQgAAEEKHzxwCL3fxM6RECEJhOgDlpOjtazoMAMT4PP2ElBLZBgPlhG9Q5JwQgAAEIQC8yIMQAACAASURBVAACEIgjQCZ0HCfnUSx2EwHSHAIQyEqAOSkrTjorkAAxXqBTMAkChRBgfijEEZgBAQhAAAIQgAAELASiRGjIQQACEIAABCAAAQhAAAIQgAAEIAABCEAAAhCAAASmEtjf3zeaftd3qn/1X8ko8GOFz9Swox0EIAABCEAAAhCAAATyEWBdno8lPUEAAhCAAAQgAIHcBKIyoW0qdW5D5tofi925eg67IQABCEAAAhCAAAR2iQDr8l3yJmOBAAQgAAEIQGDXCCBCJ3qUxW4iQJpDAAIQgAAEIAABCEAgAwHW5Rkg0gUEIAABCEAAAhBYEwFE6ESwLHYTAdIcAhCAAAQgAAEIQAACGQiwLs8AkS4gAAEIQAACEIDAmgggQieCZbGbCJDmEIAABCAAAQhAAAIQyECAdXkGiHQBAQhAAAIQgAAE1kQAEToRLIvdRIA0hwAEIAABCEAAAhCAQAYCrMszQKQLCEAAAhCAAAQgsCYCiNCJYFnsJgKkOQQgAAEIQAACEIAABDIQYF2eASJdQAACEIAABCAAgTURQIROBMtiNxEgzSEAAQhAAAIQgAAEIJCBAOvyDBDpAgIQgAAEIAABCKyJACJ0IlgWu4kAaQ4BCEAAAhCAAAQgAIEMBFiXZ4BIFxCAAAQgAAEIQGBNBBChE8Gy2E0ESHMIQAACEIAABCAAAQhkIMC6PANEuoAABCAAAQhAAAJrIoAInQiWxW4iQJpDAAIQgAAEIAABCEAgAwHW5Rkg0gUEIAABCEAAAhBYEwFE6ESwLHYTAdIcAhCAAAQgAAEIQAACGQiwLs8AkS4gAAEIQAACEIDAmgggQieCZbGbCJDmEIAABCAAAQhAAAIQyECAdXkGiHQBAQhAAAIQgAAE1kQAEToRLIvdRICO5p++eSKOL27E0fl7cVb938Pn1+Lw9EpcPn2wnhPSKwQgAAEIQAACEIDArAmwLp+1+zAeAhCAAAQgAIEdJ5BHhP70jXhy/FY8vroUozVCZ9tPxZsnx6LSIdt/h6fi6vKpKE2CjFnsfnL2UFQa6vDf0bl4f/bhjoeXOTwrC6tv5+H/sAO1cegNFhoHYW4cAQEIQAACEIAABMYRcK7Lm+eNCyEfK7RFuTh/fyaWtyofx5ajIQABCEAAAhCAQCqBNBF6sKA7FKdjROhA20asFFKo7YS8g/KEW68IrYxRzeIdZPkuacX7iZnRLFlUbxnGxU9q5G+svSJCIzhvjDonggAEIAABCEBgeQT8IvSdONHF5matbvn78tAxYghAAAIQgAAEILB2AmkitDQveyb0J+Ls4XNRpSWIPlm4ETDrP5WVqeAWoQPiYzWe+v8evbNkSTdch6LsSqyV0I8UFi2vOtn66OhIXF+v0q6bchaV0N2377OOZZvVeWSWciuY36/6lH7oRfWuzX0rKldnbW1RRHd53kEEd2PWE8D77GhpWydWe/t1ZrSoXJRx94aM41b1MMzIt/bju07HidCpfhZCiQWr314K8aL7wkATxQ0/hBjH+GntUxgngAAEIAABCEAAAi2BJBFaPs+cHoiLC7mWHq4rjXWh+jWfRdBu13UHxjq5X80ba7WhJ4fr6dBXgqs14KoXdY3uENttQrz6N5dQb/n78ItHnZ0jSvv1pGJ1xcX5jKSsX53nC/lST4zRxjJ4JvroY/NFxZixO9bTvW+3xPdsz3wBM4hX6Y61+edCVBlISqlFGd+BmI19ceSw2/YhcjPut4+1r65be94+rmxMjAHrl8A13z6WPdd2Fz9eVo2vyk3a4/4EAQhAQCVQpghtE7VThO41+jzmsz+rIKvbpAt6/e+rm1KfTW0cqyw65c2sP0YRswcLLikyDwXlVcZ2SMysSq9oInSlWvdlR6LGbCxu7OK2td9+QacL4HLBm5Gb5itT0PcFWKwIncve8X5rk/F97RyMtTic7P81Xp90DQEIQAACEIDAcgiki9BVyQ5F5ByKU6bIM/hyUxfHLC/rzz7+SJzJ2oXqs41wCIK9MBY4d7+WeyceyYSdGCG50a4s2eAxbW3Cbf8Va5cIYgh7w1h0iZ5P7p+txEmH6Dj8alY7n3xOcPpSrn1fif36S16Vv36+EJ96FT34gtdmy/AFwCCuIkVo7zkcl7iXry6sWp5F1+qfF29FXR+nL+dZn//VrTi8OWi/WIjkYht6lN2DhoEEuNQYkOeyjiliXgmxavpHhF7OnY6RQmDeBNYoQutv4x1vw2MF56WK0L3YqmZG64KhRUC0iYr932pfPBLvmuzpul+ZHevIEo7JhL7aF6+UWns+Edr5Nlhmf6vitqvfkAidlVu3uNTressMcMub9pWY768JPcyCqGsVpvo5QoR+4BG8jYye2qYIEXqE/+c9ZWI9BCAAAQhAAAKlEkgXobU9bgyhOPS7FBvr9VglcJ4/Fm+fR2QgW8SpRki7O2n3kIl5XvKJp7ZsXCnQhgQ2o223VjWEW31/oJqBIoobQWMR/uyKoiMT2XO+GF6qePzsvjvHM3Ff70mkloCM4hOyxSJCD3yr1ivfEN/BuGzxumb/vBDi5cmdOH61X2Ug74nXdaw0zxMdq5i4s05EkXZrbW0vnJos6PqlUWoM+EToUKzW11mIVakTMnZBAAIQsBBYowgdyTs08cqdCJcqQlsETpVsK2L6RWi1HrVbAK56HWwQaPukT55Zz1g+FIeHN+Lm4EgcVaVAmgIdaimVUCjoWdu9CO3pVy5MpM26KJ2N26osSf/JlDNr3bpyXpXzUMtfOMdshxXvZ8VeoyszK176/L7LYldjpV1wVYviIONE/4fig98hAAEIQAACEIBABIHsInSTwGHJlu1tsf9efx32at/2Gb+6vlaSP2wisZqYYM2gVM5dPy/Vx9RildzIXW1jtFeEuqYsg23TRntZhF6sa3JYXIKh9sxg21k+9tnOKQDabFYFXJsw3PlSscd4NtI3TLf6ph6fWY5wGKKqLbqtyppcG9/G+Crntcbruv3TxOpH4uNa9K8yoptnEDU7O4aL9dGrjmfd9xGTh++FUxcDB+rzrXF9eeJxoGdoL6VC17YUoX2sIobHIRCAAARKIVCmCN1l7C6hJvSw5rVSX1lGSL/w8W3cF5kJPRA+T8TdscyElv9bFY8jMmp7sVguxGR2tV2E/vTNmfj4ozMhv0KUQ3TXhPb0K8cyyOKwZe0mcqvqdg/qXtcm5RChlUz11aJLz4TWp4kYP0f4rVkIqTXBpf+1rxVCjAdCv5pdP/IlRCmzIXZAAAIQgAAEIDBrAtlFaJ8wVZMyfr8Tj09vxcUgy9W18WFA4B5z7npt15QzqLNKn4pmqecVoUfUu9VFsmb9V+3TY2Stjt3gMTJjNZSFGitEWkRVU/DtnmXUxJHQ+a0iomKUs30nlOqlWDbFt7PLHa9r9o98YaK+PPHFrI2LdbaKtNvSVpY8ORfPq/87b79C6P6Z+/bI51RP6RD9HKFYsCXf9SJ0dV27WM161sZ4CEBgaQQKFaH12lrl1jhyb0woF3/tW9FBhmkn3g2yhSNqQq82L2hWllWGbXP3rkRdU3hc3SjNGsltP6LbeLAVaT/6uN44pbZUHh8hZioitHMzw8EarD2HOu6VnZYs3Z6buUmiFK7Nchau8cpFxEhulpcAJlvftOGoCW3U7HbVjh5pb3BjwjpeWnv1xdQgRptnmbbGt5OxIkLH+H9pkyvjhQAEIAABCEBgswTyitD680dE7dYmo1jPcG7F2T09GcMiYDe1cFeql5LRGa4JXa/bmuzrQc1pNVNZEYnVzE7LBnU+AduaqSvXjQPhrrb5tdi7dG8qH1W71yHy6jWS22ej7nyG4Gx5llRFe0tWa78RXEiEDo09JDxqIvTG+DZZx+54reNwrf5Rs/YHMW+PWRcX2wwTZbetoW1PJdcUpvnVG4+28fX9RswrIVbtk1379a1aSmaz0y9ngwAEIBBFIE2E7gU69VyROyEH24Z2gI4a39oP8orQ6g2h1ncHmIZvV0PZtfa3r1K4dZXOWPli9amZLjJb+hiI1DYR0r6B4IfWOtTqoB31kdVsg/pwQ5BXBfErsf+q/WxrIMr38TSMv1RuzS292dl85cDDw0Nxc6MK9r4w89WENrO00+2NeHnQf4Koxo1qi0MQ1xl7/VSXiVn75ccJIAABCEAAAhCAQE8gXYTWPqnX16hS6JHLQsteGs5P9i2l4swX/frjgrqecj0bdX8Xp6ss6HYBu6qlbHnu6pMPQiKr0dZepqNdwq82KW9GYvAzg9W29h0k6ngyjZ3nsz1n6psUXhxUH912Arl+js5XRokIab7FplG2NGg6326Lb1eGxRmv3VjX5p+QsDqCi20KDNptnTcd15L9BEat8mD8O2PZo3uo2c+Dx2p9Q1FEaG6FEIDAPAikidDzGONarQyL0Gs9fde5rUzDJs4793PMjVtue13Z13P3K/ZDAAIQgAAEILBEAknrciN7dokEd2TM+HJHHLnpYbTPRncnJNNsmjzngwAElkMAETrR10mL3cRzr5rnFiezGVZ4R3PjltleJcNg1EaShXsV8yAAAQhAAAIQWCaBpHU5wuXuBA2+3B1fbnIksu60WhZnk+fnXBCAAAQWQAAROtHJSYvdxHMjQqcCzCzqppoTbJ/TXiULWt8FPGgHB0AAAhCAAAQgAIHyCCStyxEuy3PoVIvw5VRyC26nbNYp66ovmAZDhwAEILAuAojQiWSTFruJ56Y5BCAAAQhAAAIQgAAEINASYF1OJEAAAhCAAAQgAIFyCSBCJ/qGxW4iQJpDAAIQgAAEIAABCEAgAwHW5Rkg0gUEIAABCEAAAhBYE4EoEXpN56ZbCEAAAhCAAAQgAAEIQAAC2Qjs7+9n64uOIAABCEAAAhCAAATyEYgSoVnMuYGTcZEvGOkJAhBIJ8CclM6QHsomQIyX7R+sg8A2CTA/bJM+54YABCAAAQhAAAJ+AojQiRHCYjcRIM0hAIGsBJiTsuKkswIJEOMFOgWTIFAIAeaHQhyBGRCAAAQgAAEIQMBCABE6MSxY7CYCpDkEIJCVAHNSVpx0ViABYrxAp2ASBAohwPxQiCMwAwIQgAAEIAABCCBC548BFrv5mdIjBCAwnQBz0nR2tJwHAWJ8Hn7CSghsgwDzwzaoc04IQAACEIAABCAQR4BM6DhOzqNY7CYCpDkEIJCVAHNSVpx0ViABYrxAp2ASBAohwPxQiCMwAwIQgAAEIAABCFgIIEInhgWL3USANIcABLISYE7KipPOCiRAjBfoFEyCQCEEZjE/fPpGPDm+Eyfvz8SHkpv2t0/fPBHHFzcK1UNxenUpnj6Qf/pEnD18Lq4H3I/Eed2npf+2vwPn70JtE2pfn7M55kKoFgrRnd8WC5+ciYfPr8Xh6ZW4rAehneOTs4ei+nn1e9WH/FvbnaXvrk/1dEfn78Wjd21fxr+jc/H+2b3GfsWxse2jjw3fDNg157xVfNG2v5Xj0k9q5VSNprLzrHd+M9iGz6ixVB144yTq3J+KN0+ORR9qh6fi6vKpaMLMiAONVROMXfuDiu1gQIVMCJgBAQhAAALFEUCETnTJLBa7iWOkOQQgMB8CzEnz8RWWTiNAjE/jRisILIHA2ueHv/sz8foXfll85Wt/Jb77818QX/ydXxc/9yPfMw5thAhtapmKiNz8WAuC78QjKWT7RORe4HSL1F4RWm/fCY9vH3eCslWwtCGpbX4l9msxXShCvIVHI0CLlbDZiK1vH/cC6UAYlqeq7Hxy/6wVuV022cRv5TyG8GqMvdZmV7bcV3a+2lc4mI6zi9o5xmJBHHrZMORoCsgD7iFWLeRWxEaEHjcHcDQEIACBBRNAhE50/toXu4n20RwCEFgWAeakZfl7iaMlxpfodcYMgTgC654fvv7658XRb/15b8xnfupL4o9++2fED8SZFy2OGt3pQq3vvwe/dcLv+WPx9nmXfR0SwUPtJ4vQXXZzLfr2GcnPxL0uYjbnfyseG5nfUnRvM3KrtO5hNnGEADwQmRuBue7GlZFuYacIr2/FYZUJvhLGrSHgyiq/O+kyhxPGYjthTEa7PLeNs/o39UWBjdWYmOdYCEAAAhCAQEcAEToxFNa92E00j+YQgMDCCDAnLczhCxwuMb5ApzNkCEQSWPf8cPebx+Jnf/fTlTU/9kvi+veeiQ8i7Ws1TFspi/oHteSEViahaaj8XvfxQoiXttIJihBZqbVtpq5aZqI7/4Eq4jrES2v7xhZPOZAAi2GZjepgtQSEl09XkqQRR3WR2nJSp9guy4joJU6kb1qx3j12eVysDXrZEuW8VsE9cixtMA3LaahxYo0z/dxaWZjGr2q2uofVmJjnWAhAAAIQgEBHABE6MRTWvdhNNI/mEIDAwggwJy3M4QscLjG+QKczZAhEElj7/PCNr4ovHn9Z/PG3KoM+8znx6Fd/X/zaT4/Kg7bU2h2Knx92Au+gzrAuqNaZqa/27fV7u2Mfn96Ki0HW60pwNGsJ14CH5Tp87Rv5Uy2RYRN8rVpqV8ripRAvmrrYj8S7urZ1Xa9Z1hQO9pWQPaz0vdfUyRbDWtsR7KTwe3dwJK5vFR/YYtQphEsBO2EsoTgJndsm5jsyoa2sIq9JDoMABCAAAQioBBChE+Nh7YvdRPtoDgEILIsAc9Ky/L3E0RLjS/Q6Y4ZAHIGNzA/f/qb42p/eis/9+E+KB58dWQ+6VW/9GxNasmP1Gsh1NvGgFrGRyVxnsGqZ0/pmiCrSse318gxB4bg6mSqcW85XqcF9PWe9JnQr/L4We5dt6YxcNaGlGN9vFNhnD7vZNW0acX+vyUIe1MbWwzQkBDd7NOr1vltWcfWth9nYoZrQbezJNuNqQhusurFa7Y+7XDkKAhCAAAQWSAAROtHpG1nsJtpIcwhAYDkEmJOW4+uljpQYX6rnGTcEwgRmMT+EROh6mP2GeO2YD4+OhLgWVeZwV0NZnK6yoOsDLKKus9yGDeOY9p1tvXCrn9/SvyFU2jK7n19XlTk0Iboac/9PzZZuhlyLtzeDswVtsrGXrOv+m1rVF8LFrs0IPljVke5Ea1VAHxhkLYlR5Zxr9awnjcUbJ5VYH3VurZyHWholxKrJXG/be4X48GXLERCAAAQgsCACiNCJzp7FYjdxjDSHAATmQ4A5aT6+wtJpBIjxadxoBYElEGB+WIKXGWMxBGIy4IsxFkMgAAEIQKAEAojQiV7Y6cXuoN5c/aa72QFFPK0+HYv6Z/mcMKodB0EAApMJ7PScNJkKDXeJQOkx7vpkOdkHTbbe7bB+aXKn7g52ZRxrRETXBRIofX4oEBkmQWA6gfq+9O7Rqp739J5oCQEIQAACCyGQR4ResNi464vdwQ7W2mdwwWtkwXERZMMBEFgTgag5KfHaND4b1Xe2nzC2dq5RajCO6UP7bLltOqWvdoOg1de/U/qoz6193jp27hwz9gUeG4pxed9SP+uuvm2vfPtK7F+NeJFasZV96Z9Ot5++VzVX9djX66RO6cPjU6MO7Gj/6zFufhbedGkZR3uqyPYBu9LHMXrgNFgIgdD8sBAMDBMCEIAABCAAAQgUSSBNhB7UmjrcWHZOSSRZ7Hq8kSh0leRnbIHAXAh456Qsc/Zwc6BecD1QdrYfCWslak8UfQdfbYw8eX+4Wdewsevt42HdzWD3ej/mxj/BLjjAS8B/321F0tvDQ3FzUG8cVdesrLXTOotYrOp4RjHufCm0vtSXDIMXDDahe2wfQfVWPHy1PzIm2z7b60wM12q22q4OwT6+fQTcLNdsxHk4ZHEEWJcvzuUMGAIQgAAEIACBGRFIE6HlQBcsNjoXu47NIIbZeWZG0fB3z2YRkr0lA7DJ2NrTd95enWuVHTZuM4q43Y9tY5LGmi8qBpnWxi7e1e7Npwfi4kLmJeo7VTdP0/1O2qvsw+44V50y6pfNaIrC1LEEoh7AM8/Z08RaRRirhd6XQrw4vqs2Xao20xk76CyCVjt3VSqlkLrlJOHSuZHPWAF0LITlHB9+0VLF0dW+eKXEUxOjd4ooHYNLXif1fejtSvht+3osTm8vxN3JKl6s2b0j+wiaNfXa9ZTyaO7DYvUSyTqOEe2DY2gV8SqTvLrHj8xMX7U7EXfH3VcLfGkQhXwpB0XdA5cCg3FCAAIQgAAEIACBwgggQic6xC9Ca4KKIU7Uosc78UiKLoPfzew5/UHRKgpXD4pP7p+Jy48+rh7wVufX29qyFwfHOHat9n/irmUAag+Zur3W8cisQyniKw+XA6Gr/v3FWyGqTbH7h9hGiLoVhzcHrZCFCJ0Y3TSfI4GoB/CpApADiDm/RJJTxeOUl0NZROguU1TJfJ5UMsCWcZuZdyTdnT3MG+N9LHwkPn5y3IvEk33ZZB3vidfyXi3jtBG5FRHVFb+9PRF9RHlsSlkRfza+997f2DSifdQY6oOmjKNuVme01y+mJ341EW0fB86VQNQ9cK6Dw24IQAACEIAABCAwcwKI0IkOTBKh9YdW9b9tosXgb5asPXUsal+xoojav1AzqbuHxfPH4u1zT6aidTxqppPy0Nn0r2dBKaJ8aPx1+3qfxJM7cayKBGr2m5GN3mViD8aWGAA0h0BhBKIewDOKonFfSFgg6fNSqgjdCFPy38TyUMacMUXo6spBqF9pbHhDucJCMrs5vhhXBdVV9rOYVA961X6v2pi3FrSvxP6rTtgWw/IerkzrMX3YhHKjVvqka9e/XrAzU79HiG9vqxktA2BQV3vSOLoXRbaMdmt/lMLJfvHNoMOoe+AMxoGJEIAABCAAAQhAYBcJIEInejVZhK6F1Mun4kFthyFC64JvSMRVBjMQUyyCjFXw0fuvz/9M3FcP328fV2UvtOxqA51VVNJF6O5z96ZcSLWpk9GJKhTbROpuYykpQl+22W4XVUdNmRHVRm2MfSZ1ymf/ifFCcwism0DUA/hEAch+zd9O2g/A2NxQlZAHZXbGE5smjJuZmdP6kXO5Mr9V9Yn7LzTGD4cWGgF3jLeiY18iQ2YhT5rzh1/2yHiV5ayGorN23t7eMX1oa4DqPxtx+PZ0WP95yssa7/WuCsyOcUS3t4WqQwieMo4uI7tZjzxtVk2Df3E+4XLadQJR98Bdh8D4IAABCEAAAhCAQKEEEKETHZMkQuufkK8pE3rPthlRTKZxVc7j8emtuJBZR6GHxtGZ0KGsak2E1jO1pYBf/13937IMiW6PFMm1WqGJIUBzCBRFIOoBPIMIPVmgddEKzS9jKE8ZX2hONDWvaIsm1SOO7n15B7pjXH+R0P53VblBXN+O3WBS62twv9Y3n3SVlhjTR+vHWnh+9+i9eHZv3xRzUix1L6UP1HrnXdgM67k7xhHd3pCFm5cCNtF40jiCJTyk/c1bh0G97uVdJcsdcdQ9cLl4GDkEIAABCEAAAhDYKgFE6ET8KSK08entQITJWxNaZnGtPocN9N9nUuubAfo2DouoCa3VW1U3Q2rrTr4We5eynrMqQmv2qsKz6kNPNjmZ0InBTvNZEIh6AHeKtJZSEpZRWzM0B8fF9TNo4vw647m49WZGK/NG16FpX4w93aaqeh36i4Nqr0K5WWJMPxowSnFkv26cMW4pPSU3v11tyNuVdGj2tb0UloTa1l7vSxG9PIVPvHXdMx0lLrw1j81M5fbeHhhLJ24/vx6WlzFKfXhEXvPYLlNb63PlbN+1MnEcES+qzLVO9vCjw8IJRN0DCx8D5kEAAhCAAAQgAIFdJZAmQg9KPkhEU2pozhfvNBG6LXFxIUKf2XbCq6xZcagd3zwn1w+gw6IWjdDclLvQHn7lw20vsnj6t2U+RTwAtg/utjIbtY/N2JACQR8B0jZbP4o41JxHLWUiOzBEaNWW7vwx45hvSGL5wgl4H8BDc7atfrzBsxNrjb8rZX+i+tE6sF2Xkf0Y84g+V0b2Y9az1eas2H56IdE+7y08RJOH74pxW3atKUoG9lPorBtmCIdi1S5Cj+tDnkPZG0EnZWzAGTeWvue6vIdaOl29pzYHuTK62x6c92vHHFG9vRFnamnplSHVJsL1ho9dKbLmvF2pLtvxMT5pjpFrmok14ZMjkw5KIIAIXYIXsAECEIAABCAAAQjYCaSJ0FAVLHY9QTDlk3jZXUpb4hICCyaQMifZNkabgpJ+plCjTSyBlBifVgYiZJleniN0fOC+aXvBahGIJ4/FeX+NHIfv/uwp3dGO2lF73bbZ4CiMq+zqppRJcn+jTs7BBRFImR8KGgamQAACEIAABCAAgZ0kgAid6FYWu4jQiSFEcwhkJTB9TvJnQcYbST/xrDhyCoHJMb7Gr2C8Wc8jBln380K81Dbes4jDiWNRs5qNUiVK2SyX6db2wZfH+cfR2qeX98g1B41wHIcWQ2Dy/FDMCDAEAhCAAAQgAAEI7C4BROhE37LYRYRODCGaQyArAeakrDjprEACZcb4hHrhFrZyY8K+jEVX2kUVitfrkqnj0Mp7qUbW5XFO7sRxVQsk+zi6zOuqwPdAuJ+cJb5euPS+AQJlzg8bGDingAAEIAABCEAAAjMggAid6CQWu4kAaQ4BCGQlwJyUFSedFUiAGC/QKZgEgUIIMD8U4gjMgAAEIAABCEAAAhYCiNCJYcFiNxEgzSEAgawEmJOy4qSzAgkQ4wU6BZMgUAgB5odCHIEZECiCQPeVjqi+yOk3wy3CMIxYO4Fd9/2uj2/tATLiBLAeASvqUEToKEzug1jsJgKkOQQgkJUAc1JWnHRWIAFivECnYBIECiHA/FCIIzADAgUQyLVfw8aGEtxbwW9JM96Lm9VBdTms0eJ7W5br2nKq7CW15DkCGyb3Q9LGEzPeXJulbywGIk80l9iO8VHkkOMOI5biOG35KEToRAew2E0ESHMIQCArAeakrDjprEACxHiBTsEkCBRCgPmhEEdgBgS2TmBGm9R2+xu08vFhtc3BpXj6YDzAT87OhKj+34dN0y57Y6yX/wAAIABJREFU8+BcvO83mhjfZ9tiTSwD4242QRbSfnM8UeNN3Mh5KrH1tluTP7IbXfvstdi7XEdMasYmxVKknTsZS9mdHtUhInQUJvdBLHYTAdIcAhDISoA5KStOOiuQADFeoFMwCQKFEJjD/GDPYGsFlrePq002P/pYPDm+EEo+Y0f3SJy/rx7mZabX6YG4uJD5it1vtfRUZ0O+faxlQIb6l+21TUbVzMPBQ750eEQ7Z2x4ziXbdJuzql0cnb8XZ3tvKkZ34qTmIX80BIKxYxGi6bvr0MjgU8VBmxih/s3ye9vfQevD2mYvTws06/H1cSvf98KjDJ6oTNiwHxoxcJAaq8Ziuh+Gm8tKe9pz7IXi2aXW1rHzan9wHZjjkJdWJXQ+uzdiauCzEH+XQDVGuErMhNajJle27FAMdsXmMA6MePfdI6zjbjOyqyDor0nRzAf1n5TrXunXNV5j0+cR9yt/7JvztJxDYudhX+z3c5tu7xxjuxtDMCZj5s6SYynKftvXBu45NXQthee1t+KxY72wutWqc7xyT7FuAD6co51x6vFTlAg94jrlUAhAAAIQgAAEIAABCEAAAlshsL+/v77z/t2fide/8MviK1/7K/Hdn/+C+OLv/Lr4uR/5npHnC4grUQJnJX4crTIchw/2E/pvRmDLNFQyEZ1iWqCdlU64jfXBuxJfntw/64R6n/g5fiwhccQUJD3n11n1YvpQtG9eOkgRNSRWhuIi5L+JfpBxcXfSiYEBsb0V1yWbCD+8eCvqNy6PZfZvI7DdisObg+4lw3gxsh6qtwxDkGXTQSV41sp7pOBenAidKRM6RhgPxntgirSdI/Zvfdee8da+fPdoQkZ422ds7I+eh4Oxb+c2y9juhjL6hYYxd24iltr5Y5WFr5wzFEtR10I9p70TjwYvJLs5M6q9g4FzXvOtF8yxDuK47nNinPo8FSVCr3UxN3LZVtrhc8i4KI0Z9kAAAusjwJy0Prb0XAYBYrwMP2AFBEoksO754euvf14c/daf90P/zE99SfzRb/+M+IGRMIZihZKlXAuSIYEsQpwZ3X+jQdfiYZUxpZYCUP8mLNnHMe1sZQVC53pgER5VxqmMLGNpmN2duIWqMeLrwL7u0/nzx+Lt86E4m1WEDjK1BGlUG+3T/9EcAjH1QoiXJ3fiuMla3hOva3Hmal+8UjLdvfHsuPa82a+h+JHlJ1Sfhdo0v6uZsV1ZDdd1Y7M7RvANzjVKZntUJry/w6Bo2M8BMrZt8b5O4TBivI2QVsXZpPrYr8S+nBMDsa/PIcF5OCL2beRmGdvNLUb7GsR5DWwrllqDvHaGYik498t7rfIS0xlXI68l5xwVuq9rvzfzXyeSy/EG5ujgtKQdgAg9llgkwMRuaQ4BCEBgEoF1P4BPMopGEMhIgBjPCJOuILBjBNY9P9z95rH42d/9dEXtx35JXP/eM/HBWI6GuKs8BEaJXbaHRl0s6Y5pRLBA/4aQJAekCJBeEVrLCg7VkLWNUW2j26zzNQQ/eYAna9XoX/+UXq/Fq5WpaE6h9h8qmdIyqZ7mxat9WWZF5eT5JNsWT1FxkdkP9QsE/byGYBLHYfXJthZTjTj4kfi4yjitN6BrNr9rStLoIo0jnq3XXu27pmN7beUAS6vPRvLvBciXQrzQS8e45ossIvSq81B2f3DaCpS/6NsrbNzx7jlb1MsQGYv63Bcx3pBw6PWHTywMzCGheT4m9g3bZhrbTSzdhuudbzuWQnaGYinGfr0Phwg9+lqKFaGD98I66JSXaJPi1D+7IEIHZ99pABO7pTkEIACBSQTW/QA+ySgaQSAjAWI8I0y6gsCOEVj7/PCNr4ovHn9Z/PG3KnCf+Zx49Ku/L37tp8fmQbfQZYbhefXR7+Cz3yixy5PZ1GUej+q/NigkBO14JvRw/K1AfFsLorZyGVE+uqvqcN6KC5ldbWljfPbsEyujzhmOi8ElH/J5k5ivZYgHskEHonWo/zqmZIaqKsxYxuqMZ8ccNjVb1OmzKP6KYCkFXC2r2zvlZhahQzWU/dO/9oWG7+COTSjenV1Yxz2hDItLNA8Jhw7DpsX+8Br0zsORsa+bN7fYjsqAloPcYixF2RmKpRj79Zreljl10rUUK0IbL0f0l5dKxOnzshqzsS/XLNcXInTi4nvti91E+2gOAQgsiwBz0rL8vcTREuNL9DpjhkAcgY3MD9/+pvjan96Kz/34T4oHnx1bD1oZR1/rUsvAjRK7VKHDUQt1TP+NWRH1e60PneH6zqb3wm02XRN6IEJbMrHH14SusyT1DZ4sIqWtLqgt3ENxEfKf9RIK+UErxdG/rHDUL9V/D9nkEnRsY3XFs0eEbjLQbRsXOll6fBbir/2eNxPa8lLEGHd1zJN78UwpOdEIoLenyuaMMf10HcdmQfc+D8R7UMQ2M5yHpUD0WI0ZrzKWQU3oGA5TY18bh28etpUIscWZxm5aTejtxLYZg4F7eTP+TcdS91J4cK04JxZ/ffEI+w3/GSL0xPFHidChOV+uBV6LvctuI+SJcerzNCJ03JrWedRGFruJNtIcAhBYDgHmpOX4eqkjJcaX6nnGDYEwgXnND93DoFBFoloLttRetj6kKjyUTQpXfx3Rf99IK0Gh1pT1iiOedk63hdu0wm9Vo2Ew1GqDvL0Ao+b40FjMMhJH593me3XzXjxqT354dCREtU9dXWLjw0gfHaj9qW26vgfnC4lPoXOGxjzaD7ZyIatOrGUzGuy6bwJ+iBY4HPHsGpeebage5xGhnT4L8e/FJ3kiX2kYzWijbf278gIjUhBuBL96L0X5T68JHdlPFfzmlwDO+JE+vxBOdq62oXH7ruHmEg2MtzuvkTkc5BAb+4E5RL0mbfN8dOxrAGcT2y6OeukjZXxdTGw2luLt9Gah9/Of61p4Ju7rskO+e/7U8Vvn3tW1ObiLWtYLxrUkjxnzotA3R2i/IUKPgGU7dF6L3cTB0hwCECieAHNS8S7CwEQCxHgiQJpDYIcJzGt+aEW1uxNF+IzxTfOQ6q6LuupiYv8xNnDMAggom1Npo61fDrwQL+1ZxmsjMzaeLZmsa7NtvR17M19HnDpXPyNOuf1DLS8Pwhxyxv7YuI1BtjuxHTPaYo4JvSgsxlDFkOj1wmaNR4RO5D2vxW7iYGkOAQgUT4A5qXgXYWAiAWI8ESDNIbDDBGY1PwSz8RyOin2onNr/DscHQxtDIKcQN+a8jmMnxHPyxnwZzE7vIpfgmKuf9BFtsgdTcI7hkDH2J8RtDJ/diO2YkZZzTPjlRTm29pbErhc2bDoidCLwWS12E8dKcwhAoHwCzEnl+wgL0wgQ42n8aA2BXSYwn/lhxKZfusOiHioT+t/lAGFsMyUwNZ5HlvCYKR3MthEowfdT4zbGoyWML8bOXThmxqyj1gub9xEidCLz+Sx2EwdKcwhAYBYEmJNm4SaMTCBAjCfAoykEdpwA88OOO5jhQQACEIAABCAwawKI0InuY7GbCJDmEIBAVgLMSVlx0lmBBIjxAp2CSRAohADzQyGOwAwIQAACEIAABCBgIYAInRgWLHYTAdIcAhDISoA5KStOOiuQADFeoFMwCQKFEGB+KMQRmAGBuhbuq31xdflUPBD15+wvhHh5KZ4+AI2dwIw/+celCyFAjC7E0WsfJiJ0ImIWu4kAaQ4BCGQlwJyUFSedFUiAGC/QKZgEgUIIMD8U4gjMgEBFoN7I6/l1h+LoXLw/+xAuDgKz2Wiu2WhPOlUO5kicvz8T471bbwD4XMjeDk+vxOXUtxTO2redcHrT2Xp42r0YmRiKU8+TlVuE7aFawFPH0V3Xr/YTfBVhPofsNgFE6ET/sthNBEhzCEAgKwHmpKw46axAAsR4gU7BJAgUQoD5oRBHYAYEIDCCQC3GvhL7VzPIFB9kuI8Yon5oI4JeiIPz9yLp3UTXT6sxH4pTjWHzIkTIFyCdIH0w4YVI6nlycQshD9gpUsdRn7/p406cTHrxEBoAvy+BACJ0opd3erHLZ1SJ0UFzCGyewE7PSZvHyRkLJFB6jDfZTBc34ij1wUpn32TR3BoPWOty0a6MY1186LdMAqXPDw012wO89jd5/a0oK+LKQERQ/dBlI8oMt9MDcXHRp6EOMhWn9D+c04YZjK0Vw2zIQRas+lto/JbfW3sPVmOwMlDHfyGqyVLJqpTZkJ6MTV+fwj/eJJ4TeBhxZNwfWntvvZmlERmiluxNNQ7G+NjwoT6FhPwe4tT157fprXjsui5cwpr6PDzBxuC4a7stAuVwHAqsOqP82b0hAg7OEzVHWETEGHExk5hajy9rNq01s7e9DqqJYyV0NzFd/2lK5racv6s4GojdEecZyy0Ua6Fb8KRM6IhxKNfZu0fqC4QEgT80Fn7fOQJJIrRxw039vGGGeGex2E3gymdUCfBoCoEtEPDNSdnm7GyflOkPdVM/59MepPjkcwuRt7lThu678r41/KxzWpaR7MsQlOUDnr7usTzcjO7DgzL9oc0UUqxiufMhLbJ9IBzSx7G5eONM8yIQmh+KGE2kmKbaagpMmoCk9innJ+VeGPrUP9S/2b6eC96JR1LI0cY0zD6sdfdKRH77uP0MPjR+/fd+zSHXCO09/+1jRWTWx//irRBVamQvFDUC0K04vDlwZ+95BTj/eE09VRHNXWLSVB7yZLYXF12f90GBzxSMrD5Thf9OLH1y/6wR90f52PCh5UoM+T0UN42Wq2a92uLuQty4rospIrQ+rtAYHBOQ954YMe5GxG5KZKgvYkJzxDZF6HZNdnt4I25kmQxLFvOo+domusb+bcyJYvvUj0sVoWOuoeFNo3pRoYvlygFTxyG7qO1590gpsYMIPSaMln5sgghdB9prsXcp3yItM/BmsdhdepQzfggsiIB7Tso4Z49dSFn5mw+RoYdkuxv1fpZ5L1pQiAv/fbfL/jo8FDcHJ6vF8aTMly62qgejQV9CeekxeOFhE7rH9hFUb5WNnsZ5vRWZ6uRA5XPf7qHGzHA0PwuObx9hV5Y5JOI8HLI4ArNYl8eISqaqucp8DLWPFRcMwaITpVyi6Z0yp+rHGCK4LVOwE62j7JcCWTevnj8Wb5/Lv8WI0NUeeCd34rjZGG9PvK4F86t98cr3CblPhPaN13aVGTyGgl8zn0qeUTwq8bQ/T5cVL/RP4pX7jegEf9cMEIwRS0ZkUOBShPrBmGw+DInQljZRnEJxp/2ucjB4djY6M6FDNkaOuxPPh1mluljoEZSbLP3qnq1eI1GsYmLK4icjEcUsgRG88TT2DUtxWNcYwY4yiqqx5wpeO11HNhF6UEs7wG3KNRS8RjPyqu1r9hqtNx7lHwTGEUgQoc0TTRMQxhlc2tHOxW43ua4WDNJyNdMv9ClbwmdSe/rCZHWuVXaYp3/XAlR/I26b7BI///N+PudaIPoWjqUFDfZAYI0ExjyAT56zswhI8Z98eXHZrv1JguManULXWQl4Y1zGgyY2DB74Y62RDxD1Pe1tLWS0C+22r8fi9PZC3J2sPkW0ZjKN7CNomu3hJ9ioecJ1lvLQM8es4xjRPsacthyBJ0MnqhMOgoBJYMw9cGv8op4RtDV6Y+yYLEebGKe+XAr1rwpU9bk1wUQXIAzRVW+v9NGIfbbfzfFV6lr7yf5HH2vlBzzPUL1tH4mPq4zpqjqSaJ59jD60CAiJ0KrgYhybwDMUD9q5+rXbSyFe6KJ67NxqHavyIrXxUSiLMuTjWjh9Ju5l1voI/la/R3EK2eS5LkaK0G4bW8HYHbv6zFPHThNcwronX0BQDtnRbxZoXKMrYdsbU4GJMqrciDFkW3wFXnyEJuyp4nCo3xjbY8+t9BXkpvgrPpYGJ4i4hj0vZaSy7JpTEKHHRg7HKwSyitD6g8wSSPtFaN9by5qO79OuxM+ktBu96ZtA//oNL+YTELk4SPn8L/T5HCL0Ei4rxphAYMwD+OQ5O4sIrX0m2ehkE+rD2QTn2IewBM403R4Bb4z3sdmKD1IknhxbahZd/dn5QORWFu+ue1NvT5eJ5+sjCumUsiL+rwMG84B1HCPaR41Brn9msglT9Jg4sAQCY+6BW7M3ICp92NUfHtTz9QhIzTiM333igqVecFT/Sp/6OiDUXoUdGn/3++PTW3HhyRZ2lvhQxRH9f0/NhPaNd7K/Op428dPHU657jMzudq6+OzgS17erF6fWOA+KZjGZ0J6NySJ9OLAt1CYybpybpYXGPEKEdsZmaAyOSae+D0/JhA7ZMWAxKaYiZslJa25bfK1BhO6uzSJqQseI2ZZ5MjQPOj0U8ov19xEJQojQERcHh7gIZBOhg29zdtQHSSK0fjOdsIAcTKquBV6sSKNORoMbceTnRKGbu+1bDX3M9Ytg3+dzUujux+r6JG1HA45hQSBAIPYBPGnOzvEpXv/QrGatTKkJbXmY9mRtEkDzJ+CLcVVQXWU/1wlJ4wXPVfu99sH+5Ersv+qEbTHc2MaVaT2mD5tQ3taTVq6L0EOF1b3+Bzs7sz53quoxvr08Vm6FppozKPkxaRzzj11GsH4CsffA9VviOUOUmDYUkUM1m/0itPYiyXL9xfW/ssmYr7Qx2ZNfujKOUeOv1wb63KeInvqzje15Qv9M3HbekDje/e4dbyrPkSK0K2tVv98MamYb4ZiY7GSpCV29CVmV6uyf1zw+tIpyHr+H4qa+W2k1oU2b1OvKdl1YhHWjHEfIxkDsWqaGaTWhQ3bE14SOz4TWS/t1zG9P+6/F5DrAvymm2c58LrGs730Tt2NdMYwJ20v1TZwnhps2uCnXkDGfhb5mMH8P8+onRa0mdJdc5Ptqfqs3Xk5eEoE8IvSCH/iTRWjXp13WhdLUz6QsNYei+p/yGVXi538ND8/nc5rd8TfNki47bIHA+ghEPYBnnrOnCdpmRue0fiqW+supqh6wd/Oh9eGn5w0Q8Nc9X2U/97vN2z5ZDto5rDnaxuZN+0l39fA9FJ277DOlNEfb/Zg+ZByvHhqbB4HBg515THAYjRm+z6pVgdkxjuj2NmscWdQhMShqYBwEAZNA1D1w2+AixLTVRmOtsYdHR0JUb3eazMZQeyNho+pA37BXe5ls9m+WNWhfJHXXtFBFJ/vcJDdl7XFLGyLtP2jO17VW29hq2a9NhI4c72SejnldH8+gfIlZtmSvuUcdVLlJ3V5NXQwMSxzqgR8u+yjvfWpL9YWi38fDmr+DFyXW24VZJ9h8uRL6yrgTN9U3oYO40+JavS5s141i56qki2dcXR/O2HXNPb4vDJ3XS8iOkAhtSQKJuDcbPo/YoNk97PpFu/xVS0SJLa1n9ZvaVyDON3SeIDfj8gxcDy6oIR6h37u1a13GqL35aHN992cze99Sq3/b91rOXyyBZBF6smhQLJJxhiWJ0MFP2cKf0sVkQrcLE20zIttDpfq37q38qE9AQn0+iPj8T4rydV/q/5afz+k3R+cnaeP8yNEQ2BUCoQfwtczZXpHKQTY4X0z3yKT6v9NPR8sNE3DHuP5io/3vKpmu+jQ5sEmTMQatr8H9Wl9ou0pkjOmjNUAu6p/dV/ftt6bNk2Lb9lDcjXdYF94xjuj2xhNUk0Fuy8abNI4NxxmnmyeB0D1wnqMaafWUe/LIU3A4BGZHIOG6qO9ZL8TL5iX0ev5NKbW1HktSe51U/sxy0lz9hMazqfOE7JjV76EXibMaDMZug0CSCG3N0tnGKLZ4zhQR2v8pW+JnUlpNaPkme/X2OqYm9MjPiYyb+4TP/2y7rBrZAHk2Uthi2HBqCKyNQLBUgZ5ZObAk5pO0mE/KYvrpNhXSa8gPPuOK6UdDmTnLe22OouPJBJwxbslmkZknqw155eeC2otZQz/VN/dVD9DLU/jEW1fNTEeJC+/+C2amcntvD4ylMt0o62H9m/shOK69ycj+Oe70cUwOGhouhgAidOXqBLFtMYHCQJdHIOG6WL8Ibe6TMk8H5RLTc/UTorip84TsmNfvVuG+Xr++eyTe95+vzGtMWLtZAgkidCcgGPZaSj9sdkwbPds0EbrdKfgi+ClbwmdSe5YHaPlw24s+nv6nfE6U4/O/KBF62udDGw0MTgaBLRHwZ4k+r7/m1f4pc3bkJ2nBT8oi+zHrx078FG/wGeyUutJbchannUTAFeO27FrzBWzcxjfDDGHNTCMDxP4QM64PeY66r3fikfykeqDrVgv8ZqPEp6LNxYobS99zU19a6VD/PL/pz1072/nZteHFgF3GZ8fjxjEpaGi0GAKI0JWrE8S2xQQKA10egeKvC0fpl+V5ihEXS4AYLdY1MzMsQYSe2UjXZC6LXQVs8Tf3NQUB3UKgIAIpc1KuT9JK66cg92BKBgIpMb6eMhAZ6+CppagGrBw11O9OxmedOO/VkePw3es9pTva4WQcR4ZYoovdI5AyP+weDUYEAQhAAAIQgAAEyiKACJ3oDxa7iNCJIURzCGQlMH1OyvVJWmn9ZMVLZwUQmBzjERvuTB2eN+t5RKf2T34t4nDiWNSsZqNUiaUWtT4Ea/vgi+j84xiBlkMXQmDy/LAQPgwTAhCAAAQgAAEIbJMAInQifRa7iNCJIURzCGQlwJyUFSedFUigzBifUL/cwtbYbbwrNaMKxet1ydRxaOW9VCPrndVP7sRxVQtkc+NYLyV6L5dAmfNDubywDAIQgAAEIAABCGySACJ0Im0Wu4kAaQ4BCGQlwJyUFSedFUiAGC/QKZgEgUIIMD8U4gjMgAAEIAABCEAAAhYCiNCJYcFiNxEgzSEAgawEmJOy4qSzAgkQ4wU6BZMgUAgB5odCHIEZEIAABCAAAQhAABE6fwyw2M3PlB4hAIHpBJiTprOj5TwIEOPz8BNWQmAbBJgftkGdc0IAAhCAAAQgAIE4AmRCx3FyHsViNxEgzSEAgawEmJOy4qSzAgkQ4wU6BZMgUAgB5odCHIEZEIAABCAAAQhAwEIAEToxLFjsJgKkOQQgkJUAc1JWnHRWIAFivECnYBIECiHA/FCIIzADAhCAAAQgAAEIIELnjwEWu/mZ0iMEIDCdAHPSdHa0nAcBYnwefsJKCGyDAPPDNqhzTghAAAIQgAAEIBBHgEzoOE7Oo1jsJgKkOQQgkJUAc1JWnHRWIAFivECnYBIECiHA/FCIIzADAhCAAAQgAAEIWAggQieGBYvdRIA0hwAEshJgTsqKk84KJECMF+gUTIJAIQSYHwpxBGZAAAIQgAAEIAABROj8McBiNz9TeoQABKYTYE6azo6W8yBAjM/DT1gJgW0QYH7YBnXOCQEIQAACEIAABOIIkAkdx8l5FIvdRIA0hwAEshJgTsqKk84KJECMF+gUTIJAIQSYHwpxBGZAIAuBT8WbJ8fi4qbr7PBUXF0+FQ+y9L3tTrqxiV0a07aZbur843z39f/1E/Hyf/83rXGf/1Hx4p/+mPgg2dT/U/z3/+JfiT/p+vngH/8T8eILP5DcKx1AYBMEEKETKbPYTQRIcwhAICsB5qSsOOmsQALEeIFOwSQIFEKA+aEQR2AGBFIJfHImHj6/Fkfn78XZh6mdldf+0zdPxPHbx8WL6o2d/VuAiuPUFwGdP4eeOBLn78/EePd+Is4ePhfXXWeHp1fi8unEVxOfvhFPjt+Kx1eXYthF+AXIJ2cPxav98LlrEfp3xT8yROKBOG0VqP9a/OH/8MfiD77RDfTgJ8RvHP2HRjC7+i8v6rEIAi0BROjESGCxmwiQ5hCAQFYCzElZcdJZgQSI8QKdgkkQKIQA80MhjsAMCCQRaAXAu5PdFKCFqEXUV2LfED6ToK2hce2H12LvUgrFnTB7cC7ej30zUIvQr/bTRfdGNL4QB6kvJ7p+2iT7Q3Gq+aIWmJ8LOU7HuJs+7sRJQEi3i8S1wPyvxQ/9058SP9HY0AnO/54Umtv//pMDmeGs/75yNyL0GkKfLtdKABE6ES+L3USANIcABLISYE7KipPOCiRAjBfoFEyCQCEEZjU/WDID1azPRgSRqX4N3y5rcCCerMD3bS3CSJvNeNBmHVrbt33v6VmPFnFm4OrQuWxx4bB/OL4qM/H0QFxcSABmxuSQT+j3EfyqQ43sT5WDzJx02RdgUqmPml87SEcrYc8/tmEWaNtajQ2HKGYTzIy/ebI/PXHzoQhnjZqhEDrXnTg4uhbX/TWg+Li7dvoMWG0ckp/83edP8zpT/PHs3hAZB9dSfaiXi2NitAiySXZEXVOWuIgUUdVRTM7gziRCx2YfR9+SrJnQ7TVWTYqrLPwm5uo/DTO3a3vePfK/LIkViZvM6NsP2nIdf/nn4uX/+C3xX/yKFKmrEd38H+KL/5MQz9S/VX82+094WRANjgMhMJ0AIvR0dk3LWS12E8dKcwhAoHwCzEnl+wgL0wh4Y7x/mDgRd8fdp5rKg33ameXDZv3Z5pr6TzaQDiCwbAJrvwf+3Z+J17/wy+IrX/sr8d2f/4L44u/8uvi5H/me0dANIavuoRI5ntw/6z4r1zJBVbHIJXLKT/v133uxO0Ko1EZitXOoSA1FOv1cNjIhMVQKasrcrQtfwyzFTjQelDZI4Gex2Sriu+wL8Zf9OwTA8NhqgeydeCTFsEBs9MMJcZdCspLlOrDFKViagpc+BhNpoI2lFIcZi0o2sVAyUiOEVWtcB/m012hdIqQX/Ttmbx8rJRkizu8VUqfYEWrjsinCVt13Yd86psMsInTr89vDG3Ej64SHXpSFZmebCB37t27efvjukTczPFaE/lfXfyBeV3nRTckNm+DcCNNfFz/5X34o/rN/fzUwROiQk/m9NAKI0IkeWftiN9E+mkMAAssiwJy0LH8vcbTeGI8RQFKgrbv/FNtoCwEIrD055Ouvf14c/daf96Q/81NfEn/02z8jxm0HZcmyM3ynfa4fI0LfnbRCyEBY6vo5fyzePu8yIccIT6FjQ+eaLEJrNVpVUagRHPUarpowq5c7GMMvZHNIoFI6sASbAAAgAElEQVQFUWmHyt8nQjuzMh2ic92XMbYL0etz9e9SLI8SKkPcXdm0nna2Ur0hhve2rFPzuukF0T5j+Zm4rzcyDJWLCLGw+shyLSWI0M7s2aBtkde0Ny668hODWA3fQIIvpXxdGF9+mCUwghY0YxqW4mhtEkY5jWBfAx9HxK/12uyuvxdCvPRsmBkjQrf1of+BkuXcbjz4f6kbDjbC9LfEfx4UoaNHz4EQ2AoBROhE7Ag+iQBpDgEIZCXAnJQVJ50VSMAX483DiBRiVNutDw/jP1d09t8IDatNctRT7+qmSgWGBiZBYO0i9N1vHouf/d1PV6R/7JfE9e89Ex+MYe8SM4w5SxH8QkKjUS6ibVuXfmg2zvro41XGsldY1kokNDZ5Ng9T+rKey8YlJLI5hdiuhm4jnGlCa3MeRdTSzzGGX9OXh0OUfR7+komTQ8TYVNHLK7Arwu2ei5svQ96RbeyL1ea3QM1jawwqbawitL1OtFHGwrpxXkRcB+LSHd+e8ijWeaG2pXGgthFed/AUO6KuqdV80n9Z8FKIFxE1jVuX1i8GbqeLvRqLSYK289rTSmekzsehlyTqi5X62FQR2iEuiybz+S/E1+V4Pv/3xQff+AfDEh3VbzEi9xgkHAuBdRNAhE4kjOCTCJDmEIBAVgLMSVlx0lmBBNwx3j5kDj6LVewfCshTNj3y9z9ENV7gLhA1JkFgdgTWfg/8xlfFF4+/LP74WxWaz3xOPPrV3xe/9tPj8qBbgc4vmhgvvAKZvG02bJfN12U3Pj69FRe27GinCN3adXs6orRA15fzXLYIihLMJmTkOuf76ocx/B4EOIQEqhB/aWeIg+vq08saeMem3LfUFxE2GyLHZWzCFmo3JRO68YG+cZ/5N1NMfSTe1S+EB2W4IuPa449QfA/KxXhf8rTgvXWEp9gRiiX9d1nf+GpfvIoQoScJxqG7h1VQDjWyzZ3h+dTba6yw7agJ3cwtCSK0mQHttrY59hv/UVuuQ/mHCB2KG34vjQAidKJH1r7YTbSP5hCAwLIIMCcty99LHK07xkO7zcvfm9QfcXfi30jGZBvqv3+q94rhS/QZY4bApghs5B747W+Kr/3prfjcj/+kePDZ8fWgaxb+mtD3pgA3RkTtM4WVDOZQ+9Yoo8xFUHxq2tSZu45z2RwfJZipInRMzeH6mNdi77LeNMwyV4fGb4j4QxHcrAntsS+WiUOsNGvuqmNrBcwmu/1pp+76xtbZclBvsNZkQmvlNAY2BDg7xdUY/+iBEG7TcLg9FVddmQODiyrGGwya+gwto9i4dsZlIL51cTJShB74UMUzxY6oa2paJrTuB/vaSHt5ZRw0jOH6Z7Nfy8sCy/yht7PXCg/Zo3TsEMOH8eZJLKj9P7EmdFMD+v/50XYjwtBN0pUtXbWzidDBuTt0Pn6HwBoJIEInwt3IYjfRRppDAALLIcCctBxfL3WkzhiPePBrF+WVXKLueN4LQoGaghH9ywzHQSbhUh3FuCGwBQJzugfK+UjFdHR+LsRze2mf+rjDWlhrMlrNkg39vKYKj1WJ6OZfSISVRmh1Ww+PjoSo9mEzsl/l8aFz2WIgSjBz1DVW+jPKMDTZr3UFkkR+9Tl8HHqRWTFGzbyNZeK5p9jHtte84LwQK2HW7tshuyZmejHWJ0I3gdKeQxaVVktbeO+BnnbOeSDURvtd3wjy4kCc2zZnVPzXjz0mrj3ibyPi264lywaKw5rsjsH7NumbYsfoayp2k1JXqTGl9I0rQ1gberBsSmQ/rXurFxT1/pDNP61cUGw/tut40FcoPtuze7PaOwvtmcptzec/MULk769qPjfC8//dHfEfKPWih41cGxO6vgx0XpL8AIENEUCETgQ9p8Vu4lBpDgEIzIAAc9IMnISJSQRcMT74HNZ6BvlAoW+GE/cpZ7j/uH6SBk9jCEDAS2D+90B9g73VcOs56IV4ucqA3dVYcGQmxg13A/yS7IsbBUftOoHYL6vK52Bk5k80ubR+ooYRlZyw/prNhggdaVfUGDkIAmsggAidCHX+i91EADSHAASKIsCcVJQ7MGYNBKbF+KoG9LP74eaF7s0GRxhvy3wb0ZxDIQCBPASmzQ95zp2nlw2IqHkMXV8vSSLvBvgl2bc+bPQ8LwLhF9tzGE8uMb20fuLYxwrnbd3nf9N2+vm2/MbLf/EHcSdxHPUbv/ITg0zqD/7xPxEvvtDtTxBRIiTp5DSGQCIBROg1AUzsluYQgAAEJhGY/wP4pGHTaEEExse4vgmh8rDTbSDl/NQ8hiuCRAwljoHARgiMnx82YhYnGUOg9Dm1dPvGsObYLRLovs7Sy6ts0SJOHUsA38WS4jgI2AggQifGBYvdRIA0hwAEshJgTsqKk84KJDAqxrsM5X6Dom48WbKfm760moEqL7WWZoEcMQkCu0hg1PywiwAYEwQgAAEIQAACECiYACJ0onNY7CYCpDkEIJCVAHNSVpx0ViABYrxAp2ASBAohwPxQiCMwAwIQgAAEIAABCFgIIEInhgWL3USANIcABLISYE7KipPOCiRAjBfoFEyCQCEEmB8KcQRmQAACEIAABCAAAUTo/DHAYjc/U3qEAASmE2BOms6OlvMgQIzPw09YCYFtEGB+2AZ1zgkBCEAAAhCAAATiCJAJHcfJeRSL3USANIcABLISYE7KipPOCiRAjBfoFEyCQCEEmB8KcQRmQAACEIAABCAAAQsBROjEsGCxmwiQ5hCAQFYCzElZcdJZgQSI8QKdgkkQKIQA80MhjsAMCEAAAhCAAAQggAidPwZY7OZnSo8QgMB0AsxJ09nRch4EiPF5+AkrIbANAswP26DOOSEAAQhAAAIQgEAcgahM6LiuOAoCEIAABCAAAQhAAAIQgMD2COzv72/v5JwZAhCAAAQgAAEIQMBJIEqEZjHnjiAyLri6IACBkggwJ5XkDWxZBwFifB1U6RMCu0GA+WE3/MgoIAABCEAAAhDYTQKI0Il+ZbGbCJDmEIBAVgLMSVlx0lmBBIjxAp2CSRAohADzQyGOwAwIQAACEIAABCBgIYAInRgWLHYTAdIcAhDISoA5KStOOiuQADFeoFMwCQKFEGB+KMQRmAEBCEAAAhCAAAQQofPHAIvd/EzpEQIQmE6AOWk6O1rOgwAxPg8/YSUEtkGA+WEb1DknBCAAAQhAAAIQiCNAJnQcJ+dRLHYTAdIcAhDISoA5KStOOiuQADFeoFMwCQKFEGB+KMQRmAGBLAQ+FW+eHIuLm66zw1NxdflUPMjSN51AAAJpBLrrU3BdpnFcXmtE6ESfs9hNBEhzCEAgKwHmpKw46axAAsR4gU7BJAgUQoD5oRBHYAYEUgl8ciYePr8WR+fvxdmHqZ3RHgKfiLOHz8W1B8Th6ZW4fMorjthY+fTNE3H89vF8Xgx9+kY8OX4rHl9diqGb/S+7mnH2b8IqOqkvw2Zuh+jm5mGcHInz92cidqpGhI69yhzHsdhNBEhzCEAgKwHmpKw46axAAsR4gU7BJAgUQoD5oRBHYAYEkgi0otDdCQJ0EkYauwk4hUCgxRGoRf1XYt8QdONab/SoxtcXov2g4lCcajZ/cvZQPBfn4n3ztqsTpA/U/34t9i6lwKr/PmIkSXaISvs9E6L6f63Quz07GhH61X7SywdE6BFxYzuUxW4iQJpDAAJZCTAnZcVJZwUSIMYLdAomQaAQArOaHyzZRGrWZ/NgPEjb6zKNBg+yK/B92+b3O3GiZCW1mVwHbaaStX3b956e8WV5YB+4OnQuW1w47BdCHV+VrXZ6IC4uJAAzy2rIJ/R7bUgkv/rx3sdBilcu+wJMKuVG82sH6UiKHrXYoB6jj82W0amObej73gUWu6qBarHiyQj0xM2HUhAZVTYjdK47cXB0La77a0Dh0F07feaqNg7JT/7u86d5nSn+eHbvv5YaLUgVuCRtT1ZgKP5VgSmWp8uGq33xavRcoFwrAVu87Lr0dWcsW2xW57/wNXghKjVRyVyW8RSZkekSoUNzWmd3+Ny+7Fr9JYsm6DbxLQaZpX6O2jWvjsEYz2r+WGV+Tyh7YxEik66l0HVhm7/6688x5+n3H6vPWx4V7NUXFxb+alfJGeBztwMRevsr3lktdrePCwsgAIE1E2BOWjNgut86AWJ86y7AAAgUS2Dt88Pf/Zl4/Qu/LL7ytb8S3/35L4gv/s6vi5/7ke8ZzWMgCsvW1YPdk/tnnaiiiRReUaETTeVn0frDei92RwiV2kisdg6fxocinX4uG5mQGCrFCEWU1R/6h5lr2vgV4azPpB3Dz2KzVcR32RfiL/t3iCrhsdWiyTvxSL5kCIwtXoQ2M+sGtrhEIClA95mDnYjeZxZag6Ct9exqYynFYcaiItwJRUx32rmywxrXobismxvx3TJ7+1gRQ0PnD54n4IfYa8om0MXMBQP7Im2ZEstVm7OPPxJnsi6CSxTuxmtcgy/eijq1tS+t0Ahjt+Lw5mDwAs45OceK0DZmwXOHuI0Tob1zQiietN/1vmwZteYxJsX6mFf7jvIlIZts11KozbpEaFscBGIxho93URB7Tq8dCZnQg3uQVp4kxjZE6NFrvuwN1r7YzW4xHUIAArtMgDlpl73L2GoCxDhxAAEIuAise374+uufF0e/9ef96T/zU18Sf/TbPyN+YJRLLJlXRnstMy5GRL07aT8nHjysd/2cPxZvn3fZYiGRTLUldGzoXLGCmTE+z4NxIzjqdT01YVYk8AvZHHpIVwVRaYfKfyAA2DIYA2PTfWKwk5+ddyeSYnmUyBPibsk4DPGwldgNtbk3M0ErBdjIWOzFoD5j+Zm418Rt66UZYmH1keVaEmsQoUNsnDxdvpF/j5wLxlyL0hYnz9B1qnhnzFxTH/tCiJcnd+K4KQuwJ17XL2Ysmd9pIrSDWejcQR+OEKGtQqQy34ViWf3dluEbtNVOsL723j1ylMsJ2WSbF0Ntmt/Vua0rqzGYbwM34tixesTf4IvZmLVAkh1K1vo6alPH2GZ8xWWWOAlhoBxHiFDg93UvdhPNozkEILAwAsxJC3P4AodLjC/Q6QwZApEE1j0/3P3msfjZ3/10Zc2P/ZK4/r1n4oNI+5rDPA+4fTdjhUa1bIbSti790GSrffTxKmPZK/Zon2U3BoVKC7Qil/VcNi5RYoNNvOrqjzaigya0NudRHoRT+LVOajN1ZTkElYNTFFLti2Di5BAxtloEu3wqGg3QEA1VMVIRbvdc3HwZ8o5sY9Wv1ngK1IsNtbGK0PY60UYJAKswExHXgbh0x7enPMrk+NcF5Sk8h7ERPRd446kekMWWqbHcvVhoK67o80zgGmyugY/Ex9112pSWUOe50Jzsmodj5s/QuUPx/WCsCO2ZE5zzoa38kEUsDNpqDeJqfmwgaBv8dcdOuZai7gur66L/OualEC+0kjNO18cIrL57dCO+3ho1pUOhZvyeakePOXFjyJx2yHJfkTAQoSNBuQ5b92I30TyaQwACCyPAnLQwhy9wuMT4Ap3OkCEQSWDt88M3viq+ePxl8cffqgz6zOfEo1/9ffFrPz0uD9qW0akPr3nAlpnN/UOxJ5NZfZjsMsMen96KC1t2tFOEbsW0W7XOqlewXolcznNZ9QuzZrUppE7IyFXOlcTvQYBD6ME9xF/aGRJdXDGvfwrtFQ2VTF2bQGe0ncA9xGNKJnTjA33TM/NvphD1SLyrYvhaKZUir7dgXHv8EYrvQbmYyGtGrdk+Kv4nZEKPmgvGxEQwEzqyVm8T66p/I65B+SKmtlf93ymCpDLXepmFzh28JsaK0B6OoXlE+b2t+V+X0lbE46Ct9oloaiZ0WiwqHGRWd3L2e1xN6CwZ0IO53/aidVxt6rY80LB2eORSqT3M+iImjsfgPK4XOh5jEKFHeco8eO2L3UT7aA4BCCyLAHPSsvy9xNES40v0OmOGQByBjcwP3/6m+Nqf3orP/fhPigefHV8Pun32UzYKlEPra0LfmwJcKDvREKHrzDklszDU3vFAGnzwbvr1nMvmtijRRH1AD9VXbYyvMvNei73LauPFUKam8/zdOS3lPsya0B77Ypk4xEp7zVY5trbe8qAWq8+3nS0H9aZbTSa0ZwOzhqGnTrNTXI3xjx4I4TYNh9vTqtRCm/FtcFHFeIOBsmmdRSAZVxM6EN+6EJQqQof8EHtN9df0yLlgYH/YTysxyxRKfbG89+ZMfPzR2SqT1pjDhiKdWRNa+RpAMgmxV9m5hLPQ9auK3kZ/kkGI2wgR2hb76nwXNZ9qGcTVJx6rTSBDttrvvdNqQifEojbObJnQBl8HD2UuMolYXpr4liyO2BteL7od1Tme3Itn8gsYaffArk3Yod5r20Hqc7X1xZ/GAxE6bk3rPCq82J2w22iiTTSHAASWSyA8Jy2XDSPfDQLbiHG5S7u6c3s2mrk+78tmEB1BYL4EtjE/TKUl5xW1/dH5uRDPq0xOR6erT87Nz7P7+UkVHqsS0c2/GBG6fZqsMqtWZz88OhK1MYOsTdW20Lls44gSTRx1jZX+jDIMTfZrXRUkkV+IQy9SKcaombexTDyCmX1se61ILFbCrN23Q3ZNzNSbv4W4t50Ny5CopS28At+U591QG+13fSNI9fNv3bYujvuxx8S1k8+FaER827Vk2UDRytm4ZnwvAwJ+iL2m+uveY39qTEhbRsdyBdOoK1sV5FA5+3wWJQQHZuaACO30efS5ffFtKzWi2zssT2KfE/Q9ACLne8m2v6ZC16KFpW9zuinXUigWjXl3xEa7tjl7UP7FN35buZ2ah1LaJDYjOcmOTuxVFwd66aEZ2ZEkQhuLp2BxbJcTKzeqn35NXc1toZ13sWu7MW3BRk4JAQgsh4BvTho/Zzu4WRaO3pqRTvz6PcFTd9LrQveDynI8v5yRhkQmuVA3BGO5+AuuVTSWlkVd7nN4M0oCrs1tS1wkmeu5tQj0ccZwFAR6AqH5oXxU+gZ7K4vre/gL8bIVFHf5n0scihrzBvgl2Rc1CA6CAAQgUDiBQJ3ywq3PaV7KGn6pdiSJ0J+cnVWvm+vPnup/Zup6HNR5B7B7sWvfPCGOCUdBAAIQmEbA9wCeZ86u7PK9/Y42W6lT2D1QD2rqTe5n6r0o+oQcuGUCfpGpi6sqQ+Hm4KTKiutTl1bZXYNakaHB2NYouc+Rck2twZYAkvZlllZTkJfuoUDi9w0RQITeEOh1niZJ5EWEXqdr6BsCEICAJDDtuW3X+JWiZc7LjiQRWg+hKYFo1gqaV2A6F7vdJwUHR9fiuk+bH2b5mZ/h6TuWhnbbHfnJVOhTPOMziFD/+qeAcnwjP+mQi83TA3FxIWEFdsi1ZbI5Put59K6qKWb7rrEWIp7dW3fY1jO6hp/A6DX2qppVLtsNpiufyuz/cBzM65rA2u0SGPMAPmXObkaXRYSesPGBDa3t863Yz5G26yrOPpGAN8bV+8nb/b6WZLtJ1WNxensh7k6Uz2oDNlizGzKfozFhquiyDlt8TDylQ9aynuu5nIi74+4T+1EvESYGGc1mS2DMPXC2g9x1w6fOh5viUrp9m+LAeSAAgYUT6DQfvUTQwqkw/DCBjCL0hOyzHbiJOxe7lqyg0OYe5u/a2/yB2DJh84hRIvSE/tsnaf+mFk4RqRK09Vpfbx93AkK4T/8GL91ni6FaQ51tujCnP1ibOyB7bNfOGfOQHoqT8GXNEUsmEP8APmHOlmCziNDdxkz9dW7ZbCfGkTbBeQfuLTFDX+oxwTJYr2rxeU+8fvhOPKoKhH4o5+FmB219M6lmi/PVxjhqnbzmJaVlR/I+/iPOYY1F27U3MYNhhC02Qb19wRpbBsc/Zwzvb+7ya6PKdvQvl3UbM/W/1Itoh8cdfw/cYQgMDQIQgAAEIAABCBRKIIMIrWS9jqyzGCPIFcqtN8svQgtxXj8A90dbMv/UAeoiqe+/bQ+26t+anZ09mx6EBNkp/TcadH3e4W62wQyvUBvLLtXDPgNcJePQmFUR+q77jNsqICgvB6Js7/wQm51ps7P0CwH7iiEQfgCfPmevprLhxkWDzRnGkGhiXf2iIlYMU09i2QmYjd7GeGF2xwbrnjfzd7uB093Jldh/Vf//VfZz9X/VflWr+7LtJaEiyLbZ02pJjxbV6u8R5xgcX68GHKW6Jr44GWWLbbze3b710PDfa/1rumkvvVw+MIN2Wv+zC34MDhII3wODXXAABCAAAQhAAAIQgMCaCGQQoVeWjfq0O1aQW9PAc3U7ToTWHz5tO6NqpR6aJK2nosnlDWUyCyWTqhFuQ7vhmjtr95uLWYVQvX9LhlionW0vFafQ+0rsX1UZajZB3RirJnzbHOwUoXUOSlkUQySTHXfH2ARyix9ummZ6uRXZVyAOcgUr/SyCwJgH8FFztofetOx9M/NzWj9yblSu48NDcXhzIE4GLwEX4f5FDDK0F8Pbx1fNxl2y1NGg9JEqKtfrkHePesH64qAq0aTVkDZLdwxrmQfP0XhExvpLIV50gvjq7XTrs0kvH8fbUgvF7x69F8/uK4Fd+QohKnC8QrlPoDbrv0edrxPspT/dbab2H2cFR82LwJh74LxGNsZaPpEeQ4tjIQABCEAAAhDYHIGsInRTJ1TNMnKOY3ceGNyLXdunterfLNl7+kOo/sm7IUL7M47NWsO1QzqRO5QVPCbDV/VzqF2sCG1kdfvGmjcTepBlbRXAlQGHxqu037Nt5tSIE8/F7WkrmkwXIzY3aXCmsgmMegCPnrMDY56SxRm6dmxzRST6+OzJyA45rCgC0ffdwT3UvhHmC/FYHFxcDOfgZrSu8hja3wPnkODk/dhVimJazE6wxVneIsLF3UvZg3Ozprb7hZblHhdxqvaQmBIlKf1HG8KBMyIw6h5YwrhC90/n7+H9V6w17UsYMzZAAAIQgAAEILBYAgkidLXwf3Ivnsks3fpxoa4tOPi00/FwkEv4KMBtvsWuzmPwqaplUalnARqLx4FwHK6TbOAJZVKP6d+ZtTXVLr1O57FYZaWF+8xZE1ovH2J+Ylzb81rsXcpaox7bNU6GEBERBwWEOSbMiIBXoJs6Zw/Gr8R/9/fouX/QT1fTVa8Ff3GglDGaIDBRimNG0TrN1NCGwPYMeP1lpRRwqqz5wxtxM8iC9gig3oxl1wvR1blO6697jBcsZomO9l4hhP34jtskW7S9JvquIs4n13laDWl3XWn3C+L08UkfNZkPok9gnxZStNohArMRoQdf2lm+lAv8PlybOsrRTPrCYoeCgaFAAAIQgAAEIFAcgQQRuhOdr5Ux6TWhrWLzBFGhOGwrg/yLXS1LQd/Rvc9Iavs7PDoSouJ58v6ZuK9qWV7oO40ai8lwFsRQO1LqRIcyoZuGnv69C9spdmklMXRWPlsGD9Ft4Qv5b5B15hyzWZZEz1ZrH7IHHbefbQ8eErrfVdtt51Q3vqr7cMaBWk+84IsA04oiEHwxNnrONodnXA9Rc78Nk765mFYTOvaF5eAamlJXuigXYkyAgCvGveVljLlYFWNtdZrtWbjjzrG6j9ZlPZoSGJYa0809oNlMsSu91X0hExJXx9tS39ardYBa5qthHfk1UecX5/1Q9Zsnazr2fOHxaSXHuHIgUBGYjQgtvTUpE9pyzTrul7IEz+pFDfXTuVAgAAEIQAACENgegSQROmT2Ej4Dm91iN+S0bfweWoBvw6bYc87Z9tgxctysCKTMSbnm7NL6mZUDMTZIICXG+86t5a7Mr1rC9Yh95uridqhMV9vXtNIcQWx93y/Ey1X5p5Tzue5/gfti8vi478Y5e6FHZZkfNskuFM+232P/Vo+jr30vC9EjQm/SvZwLAhCAAAQgAIEhgTWK0DG1/ObvjtktdktEHlqAl2iztGnOtpfMFdsmE5g+J+Was0vrZzJKGhZKYHqMrwZUC6G6GKvva5G0cWeXCVzV0/AIvpb9Mdb8+byRFZl4PjUrut0AUlTlqqovuYYfJbXg6y8mmr0ZLZsaR8eabSPfrrH+RUZ0nxy4SwRyzA8b5RFaR8YKzr6XQsbXDxsdISeDAAQgAAEIQAACPYE1itDLoDy7xW6JbgktwEu0GRG6ZK8s2jbmpEW7fxGD31yMr7F8WFdCphVuE3bhXITHGSQE4glsbn6It8l7ZGgNjAidCTTdQAACEIAABCBQAgFE6EQvzG6xmzhemkMAAmUTYE4q2z9Yl06AGE9nSA8Q2FUCs5sfpojQtjrurj0UrHXgd9X7jAsCEIAABCAAgdIJIEInemh2i93E8dIcAhAomwBzUtn+wbp0AsR4OkN6gMCuEpjd/DBJhO42hxfn7SbZcvPuA/nfineNmtBd3fmLg2rvUzbA3tXrgHFBAAIQgAAESiWACJ3omdktdhPHS3MIQKBsAsxJZfsH69IJEOPpDOkBArtKYDbzQ1c3flg+/WglDId+l8Kz7MBRE92oA9+1S9t0dVejh3FBAAIQgAAEILBuAojQiYRns9hNHCfNIQCBeRBgTpqHn7ByOgFifDo7WkJg1wkwPygetm08mrgZ6Zzj5w//9R+KX/zqL4r7//d+MIy9f3dPfPk/+bL4Z//on815eNgOAQhAAAIQmAUBROhEN7HYTQRIcwhAICsB5qSsOOmsQALEeIFOwSQIFEKA+WHliDoL+tW+tvmppTxHIa5buxn/8Df+oSFAy5N+37/zfeLf/tf/du02cAIIQAACEIDA0glEidBLh8T4IQABCEAAAhCAAAQgAIHyCezv75dv5Fot/FS8eXIsLsSpuLp8Kh6s9Vzz6fyf/y//XLz4n184Df7Ol78zn8FgKQQgAAEIQGCmBKJEaBZzbu+ScTHTyMdsCOwoAeakHXUsw+oJEOMEAwQg4CLA/EBsjCHw9/7bvye+/f99u2ny8j99Kb70H39pTHOOhQAEIAABCEBgJAFE6JHA9MNZ7CYCpDkEIJCVAHNSVpx0ViABYrxAp4eEWewAACAASURBVGASBAohwPxQiCNmYsavvP0V8S//t3/ZWEtJjpk4DTMhAAEIQGDWBBChE93HYjcRIM0hAIGsBJiTsuKkswIJEOMFOgWTIFAIAeaHQhwxEzPqLOg6G1r+oyTHTByHmRCAAAQgMFsCiNCJrmOxmwiQ5hCAQFYCzElZcdJZgQSI8QKdgkkQKIQA80MhjpiRGd/133wXIvSM/IWpEIAABCAwbwKI0In+Y7GbCJDmEIBAVgLMSVlx0lmBBIjxAp2CSRAohADzQyGOmJEZiNAzchamQgACEIDA7AkgQie6kMVuIkCaQwACWQkwJ2XFSWcFEiDGC3QKJkGgEALMD4U4YkZmIELPyFmYCgEIQAACsyeACJ3oQha7iQBpDgEIZCXAnJQVJ50VSIAYL9ApmASBQggwPxTiiBmZgQg9I2dhKgQgAAEIzJ4AInSiC1nsJgKkOQQgkJUAc1JWnHRWIAFivECnYBIECiHA/FCII2ZkBiL0jJyFqRCAAAQgMHsCiNCJLmSxmwiQ5hCAQFYCzElZcdJZgQSI8QKdgkkQKIQA80MhjpiRGYjQM3IWpkIAAhCAwOwJIEInupDFbiJAmkMAAlkJMCdlxUlnBRIgxgt0CiZBoBACzA+FOGJGZiBCz8hZmAoBCEAAArMngAid6EIWu4kAaQ4BCGQlwJyUFSedFUiAGC/QKZgEgUIIMD8U4ogZmYEIPSNnYSoEIAABCMyeACJ0ogtZ7CYCpDkEIJCVAHNSVpx0ViABYrxAp2ASBAohwPxQiCNmZAYi9IychakQgAAEIDB7AojQiS5ksZsIkOYQgEBWAsxJWXHSWYEEiPECnYJJECiEAPNDIY6YkRmI0DNyFqZCAAIQgMDsCSBCJ7qQxW4iwDk2/+RMPHy1L64un4oH4lPx5skLIV5eiqcP5jgYbN41AsxJu+ZRxqMTIMaJCQhAwEWA+YHYGEPgK++/In7xq7/YN/nOl78zpjnHQgACEIAABCAwkkA2EfqTs4fi+fWROH9/Jj4cacScD2exO2fvTbe9jfeu/dG5eH+2pKifzo2W6ycQOyclzdn1i5j+ApBjmjL/fyLOHj4X8lISYkof9fnrl0HH4uKGa3L9Ebb9M4RiXM7Ph6dX4rJ/O1jH2iuxfzXuhaHs6+j8vRhM85++EU+OL8TN4Wn3QjIfl22cUwj9WqyuRn3MmYa4nfHVxm9ujJlQ0c0EAqH5YUKXNNlhAj/06z/0/7d3PiGWHHl+/81aZluw9g4+SRe5VFCuNQzM2PTJA5qmDy6WKdihxxjtNLREw7okY9eyfZELHbrEeugewxTMw7ZUNrS0DWWd3N5DC7rA0/SKmVsfZC8MLtdMuRB70MHYshnoBg/IGfnvRUZGZkRmRNbLfO/TJ6lexi9+8YnIiMhv/vIX8sWvv0hb+Po3XpePv//xEreWpkEAAhCAAAQWTyCKCP35/etyLX367ysgLB5EXw/Y7PYlRzkIQGAIAj5zUvCcXfkaoG8rMuH4eGsuFKZ+HW91FPVMO7kgvcHLob49M/Zy7WM8ExpPNzflZGNn/oIwfXEiHV+U52NLDFv6S4/oLyEvvs5sPhDZ1QX6/EVTfCH64tunxvPFtnHsd9By++ezBo6FQCWgIXWq+hxV/V37rXgJVmuIXr7+0kW3P98HFEY253NAav9MdvTAIuNvncuravS9g6WOzOZGNk+7fo/UiXoqjmfvPpNLL1yKZBkzEIAABCAAAQjYCASL0KVocEdkz9ywrADzxs2ua4OY/n4sW7sbMpuVIbXGA7IR3WeLuLJEJKqHxquPtUhdvR/UA/PNc2fdnTeXtg1rb9+S6DJj7JgPwu0b85aNs8fGuhZVqXO/oE3xCtw6NHEgAq4H8ChzdhQROntATia9eYRpH6Gwce7pKjgO1CGYjU6gdYwX4+HBuhxqe5J03J9porSPV/o6fVykYMoFzbMt2T2dydmOESHtY7ftmouuM73nTqsCdO5fus5K5Jc5F92+Qvi6yDaGjgHKBxFwrYFBxlXh//cLufdP/rl88Jf/R/7a3/oH8sf//sfy+t/+6z3MZnv8cg4x1jLz/qu8pPXay6o19rFcLYRkWxnNa5cAnLzJqQvTXcoX92KRzs60Vz4z5EK66/cexG1FyAcdCSRmIAABCEAAAp4EwkRoxxttTx8mfVm7CO0SQxOxVYuiqkYB1qP5rBvSImKgoJj0yfXzm/NPkBs3qm1117uk6+a0cn1n36rczOjIoI25c+Pu4H5Bm+JJ3xQ4v1ACrQ/gsebsKCJ0LuZpkc/q3j5c11MoeKC0CdeF0NUx9YJHbVwyAgJ+Y/yKPNEEnt5jKxVM1uReIeZURO7kRXI5xiznAxSiSpdo6fLectdpa1O3NDvtXw1U11pbVGU2GDpFS3dony19RjH8/Ov0b2M4zxHcHLggQ4vQX9z7gWz/2/9ekv6tv/8v5D//u38kf7MzeyNFkL6/tK5hmqjs3MsmzpjXOETkyvU+9s321vw3noHU9Y17kJzFwZYc38rLVXyw/N6Zt70AInQkkJiBAAQgAAEIeBLoL0KbD/6uzY2nQ1O7LEyE1h9giw1j/jfJI6V1EaWyKbVEEdrgNW4kW+q2HbDn2lzWNotGhGMn3ywidBHBFroxd22sbfb1v6X9Uvg33KZ4avcB/o6HQOOcFHPOrn3loH3G2wVFem/pXz70SemUp1/Q8/+2RHd2cY9rx0mgTWTShdN59LP0ygc9L7+WRyw+kPXDPHJRjPQetijGHudkBNd52iVHdfs+oj0Sul/am07tqw2/PnV2aKOtDzvxHOf9smpeDS1Cn/2ba/KPP/x8jvXv/FN5+B9uyktdQbeJxLW1sTCer7WVvWj+m81eem62OkS7eMbQ99fG15apGT0Kuf5VYjVdiKu8vwidTNDZC+grT+Z7bK091t+78m64HhE6EkjMQAACEIAABDwJ9Bah6+ka5jVWDwPy9GSil0UVodNDc/KDk2wbzNrvhpBsY+grQuu2s91q9aCvLptT3yjEtijtSlvMPHW2jbG+MW/ZODdu7Bs+/0v9sPXLTTkv8tnqm+aJjmPcXh4CTXPSkHO29csHJ9L6QXH97BQP19p9n+QD3jzZqOazdPrDBVMh0CwyGZ+3F1F3vdKFVXONF/dPsb+ppfdQdT2+muSgzgTrWa+c5B3rVKtTIt48vvpUbp73yKfeula3ibf1fO5+Y6d7++Z2e9bZsY1BPP0gcNXABIYWoeV/fSJ/fO22/PzXSUN+63fl6r/8T/Kv/mH3OOjaHOIK9tC5uQIq0q1rMicVqS/Sbb0ZRJHkztdf3rrqDy1v+pTb29o9lVkl0KQaCd34e6RxhAgdCSRmIAABCEAAAp4EeovQNftEQleRuDaIXhG3bdHKQ0ZCWyILe2xOK7lebQPSxago0xiJbDHqsun1uytC/SzJ5d2wafa88bgMAkMR8H4Ajzln+754qj1Ed/wiwxNar/y/nra5bPEEmse4+WIj+/8kuE8ennY98NKwVRF07Idq7smWbMxmVWGnE65udaamzTyqXerLX8pu6HnZ8/LNh4Ra9gfedfZoX9bI7LBJXTDzrbNrG0N4+vrEdYMS8F4DQ7x4/r/lL//rqfzu3/178srf6JMPuv4S1kyfUf8SQc0792TtyH5on618Jb1VbR9fXX87pd2zrPnO8sV8VckJrV4emwcu6iJ0y+/KXsv97du9iNC+pLgOAhCAAAQgEIcAInQgx3iR0OZnpkPnhDZzWWqRW302l4agFTMndLbJnPsbtDF3idBFBLgWxVapr4ykbtg0B44nikMglID3A7hVhPYRe7QH4dzZ9B6pfLbuYyfPMWvmxa/kufexYxAjFUfoEBp9ee+UM0q+VGMzOftX/0IrW5/Eehhf2fjWlzTmS+Diy6EkAn/zRE4sUdDx6yw8NQ4fy//sVV/Jp5oGpzmvdPPLb6/6OjHV22dP7+VVZ682aoe5deQ5+ptnBRz0XgMXxqI5v7pySZ+rqodwJz8W62XrXjb7Um8mRmoes4yRVmtzW72tk+wLIudeOb2xkkNNi4PVE79r5W1fJWbQ0zamXxHOpPISrCaUt/yuDCFCL2wUUzEEIAABCECgLwFE6L7k8nJhIrSxQasdXmSkxNis53q0fWJfObCncSPpqNu5uWw5dLHy0HZSIdzLt3Tf/VT2X5ub6rcx99xYF0J04brO3bbhjRlRGjgeKQ4B7wdw27i1HfJnQVq7/8y5ydNO/eAxIye0r53KfNUnrzTjZkoEWlPOFJ91G+vQfA3x+4qoORK4ED70NVAXgo2UIKkfQ9RZNlCu63lfO9RX9HnjeqoPilaxZ6D2RaizUxsLUSuQ55TupWX01XsNXFjj7S+OsuF3Xfbkzvxw8YX5OFzFY2vjiz98UZ7/5nna4K9ufzVcw7EMAQhAAAIQgEBKIJ4IvaJAe292+3y+HovxIuuO1QbsQAACVgK956TEmhKjKp/v9mQ8Njs9m0GxkRIIGeODpGqx5l6df70zSJ1539gEnd71Ne0NHHuG3vW1ja+h6vSwa4qAg7RvpPfWMrgVMj9cTPsRoccktN/92V3Z++mevHX5LXn/u+9fzBCgFghAAAIQgMAKE0CEDuz83pvdRQrBi6w7kDfFIQCBdgK956Ta4aR9SVtyXfYyFctOr8opNGICvcf4QF+tWCP7iij+B+tyeM34cigi2+IgvfJLocA26lHRWVoAsRxSnDdAfQHR69BHFwDbwcjx6qy3MT2NOf0Xm6erpfwen0Dv+SGyK49++Uje/uRtOf/yPLW89vU1eefb76RiJ/8gAAEIQAACEIDAqhJAhA7s+d6b3UUKwYusO5A3xSEAgXYCveckwEJgIgQY4xPpKNyEwAIIjGV+ePUnr5YC9AIwUKVGQL0AuP2d2/Lmt96ECwQgAAEIQAACCyaACB3YAWPZ7AY2g+IQgMCSEGBOWpKOpBmNBBjjDA4IQKCJwFjmhyLNAz01DgKXXrgkz959Ng5n8AICEIAABCCwwgQQoQM7fyyb3cBmUBwCEFgSAsxJS9KRNAMRmjEAAQh0JjDGNVAdfKdSc3z02Ued20OBOATI+RyHI1YgAAEIQAACoQQQoQMJjnGzG9gkikMAAhMmwJw04c7DdS8CjHEvTFwEgZUkwPywkt1OoyEAAQhAAAIQmAgBROjAjmKzGwiQ4hCAQFQCzElRcWJshAQY4yPsFFyCwEgIMD+MpCNwAwIQgAAEIAABCFgIIEIHDgs2u4EAKQ4BCEQlwJwUFSfGRkiAMT7CTsElCIyEAPPDSDoCNyAAAQhAAAIQgAAidPwxwGY3PlMsQgAC/QkwJ/VnR8lpEGCMT6Of8BICiyDA/LAI6tQJAQhAAAIQgAAE/AgQCe3HqfEqNruBACkOAQhEJcCcFBUnxkZIgDE+wk7BJQiMhADzw0g6AjcgAAEIQAACEICAhQAidOCw8N7sfn5frl87lq0HR3LjlcBKKQ4BCECggYD3nARBCEyUAGN8oh2H2xC4AALMDxcAmSogAAEIQAACEIBATwKI0D3BFcW8N7uI0IGkKQ4BCPgQ8J6TfIxxDQRGSIAxPsJOwSUIjIQA88NIOgI3IAABCEAAAhCAgIUAInTgsPDe7CJCB5KmOAQg4EPAe07yMcY1EBghAcb4CDsFlyAwEgLMDyPpCNyAAAQgAAEIQAACiNDxx0D7ZvdT2b98Sx5aq92UXSM1x6f7l+VWefG2HDzdl9dU2ULA3t2Q2ay4wPx9JolBOSpzfXwu969fk9lJfl1q40x2CpuFT01/j48KixCAwAUQ4AH8AiBTxUIJMMYXin9ylX/02Ufy3l+8J+dfnqe+r319Td759jvy1uW3JtcWHHYTYH5wM+IKO4FHv3wkP/r5j+SNb74hb37rTTBBAAIQgAAEIDAAASKhA6E2b3YzEfh4KxeGjUjoz+9fl2uzjVJoTgVoOZCn+6nsnOjOye/HW/Lg6Ia8kpadycl2y+97xyInMs85/em+XD48lc2TjUx4RoQO7GmKQ2AaBHgAn0Y/4WV/Aozx/uyqL7szO9sHTyXfengYLl5wN1/azZ5HlT0uMYVnmwklRt/+zm3Eph58x1yE+WHMvTNu317+8cvyxa+/kEsvXJJn7z4bt7N4BwEIQAACEJgoAUTowI5r3Oyaom8tHYeKkj6UdRUNLbZDC9Xvj+VqKSAbhxrq9lT5PZE7O2dy7XA9Ea7X5J4q+2BdDovo50LILtubR2KndVsipAO5UBwCEFgMAR7AF8OdWi+OAGO8L2vj5XhiJhWlT3ezF959zKYvvNW+o2f5PnU6ynzw9AN5+5O3vSwrsen9776PEO1FaxoXMT9Mo5/G6OWLP3xRnv/meeraV7e/GqOL+AQBCEAAAhCYPAFE6MAubNzsqgezW1JPqVGm4MhSdSQXyP5aHulc80UXig0RWgwRW4nQR1fkSZqCQ2RTpea48mQuMBuieBlpfUdkDxE6cBRQHALjIcAD+Hj6Ak+GIdA6xssXtDtydi1Ph6V9RRTs0ZD2h7StGm45m8L8Cqsrn9DyXevzuf7Vn7xapt4orn/9G6/Lh3/wYfq/SqBWkdLFP4RoH6rTuYY1cDp9NTZP7/7sruz9dC9N1aNeTvEPAhCAAAQgAIH4BBChA5nGi4RuiUa2HWpoi4QuUnekgnSRxiO3a0ZmFyK5Hi0dyILiEIDA4gnwAL74PsCDYQm0jvF0bVNnJ2jnJsR0Z0j7Q9pWDJwvx7uCyiKrz3a6pPPoWkf36/ef7Kc5oL/3e9+Tj7//cfppvfmvEJt0IZrP77uzHmMJ1sAx9go+QQACEIAABCAAgYwAInTgSAjKCV3kfE6fDas5oZOQpeTh7p6sHRX5nPVI6Dwn40aeI1oJzIXwrLdHF56JhA7saYpDYBoEeACfRj/hZX8CbWM8/crnbKc8X6GsxfYyN11nk6+HirXUw6Um+2oNP1zXDwfO1/WH/mJ4o+/pl0/2Q4675F/OzqJIPpXS/4VEiVuZekC8gEtUXteXfuel1ppMIZrP7y+gYy6gCtbAC4BMFRCAAAQgAAEIQKAnAUTonuCKYu7PgpMDBa111B9MawcGFQ+HtXzOiUH9wdFbhNZ9yetvOrAwkAvFIQCBxRDgAXwx3Kn14gh4v/w1XKqKvH2ieOs5lcsqjLW0e67lFts1tN3F8+zFtnZYcmqzS52W/jUjqy9uCESr6Wvvfa20hQgdDetCDbEGLhQ/lUMAAhCAAAQgAIFWAojQgQPEe7MbEjEUUjawfRSHAASmRcB7TppWs/AWAiWB5jGunZVgPWWv+D09DKFHGol2+0p4fnz1qdw8TyKOtS+d/LrO5Xthpa9wrJ1D8Vqorax8e+R2frCyujARq6+f35SjG6pTfNvpRy30KkToUILjK88aOL4+wSMIQAACEIAABCBQEECEDhwL3pvdECE5pGxg+ygOAQhMi4D3nDStZuEtBEoC3mcxWJgVKSnMNBbZ30V2y8ODrYXnh/3a+qMhp3MU22l9mZB8qg4eTgXd7F9v+6m/p2WbvezMa7VEVpceJb+lOcLkxit5KpH8661m4XoxAxwRejHch6yVNXBIutiGAAQgAAEIQAACYQQQocP4NSbVrpkNEZJDyga2j+IQgMC0CPAAPq3+wtvuBJrGeCpwtkYg52ksTjYNsdkWJVz3y21f2dEigFMTMW3fEjkwDwHsYN/MB105vNHPzpxK2/WKcyZCr91T0eEHIofncvNoTe7V+HTv/5glEKFj0hyHLdbAcfQDXkAAAhCAAAQgAAEbAUTowHHBZjcQIMUhAIGoBJiTouLE2AgJ9Bvj8xzQaboM7fDCaNG5lvMZotjOz4XYqAnQbSkxunVcFD+1Kj/dvy7nV7fk+PGaHO2vpQcty9apHMudShR3Ny/jX40IHZ/poi32mx8W7TX1QwACEIAABCAAgdUg0C5CP3okv/mjP5IX/uqvVoMGrYQABCAAAQhAYJwE1tZEbt+Ws9dek/X19Q4+mocQanmJ5X57io0utSSR2Hu6yBrj4N+2L6Fi2Ffti2WnIkJfllsP5wcwZwcv1w9k7oB3kEsRoQfBulCjiNALxU/lEIAABCAAAQhAoJVAuwj98ssiX3wBQghAAAIQgAAEILBwAl/99m/L//jFL/xF6DyKOMm/Uc+jrEVDx2hYcTDhfnnwX6jVIn2Ixc7mrjw4uiHW8xdDq41QXkVW64K8+f8Rqgg28eiXj+T3j36/tPPV7a+CbWJg8QQQoRffB3gAAQhAAAIQgAAEmgi0i9Bf+xrkIAABCEAAAhCAwGgInP3qV/4i9Gi8xpGxEXj5xy/LF7+eB1ogQo+th/r5gwjdjxulIAABCEAAAitHQB3SfbieB3bMzzTRzv9eOSQX0WB/EforIkRsHcJm9yKGKXVAAAK+BJiTfElx3aQIaC/FEaHDek5FAL/9ydty/uV5mKG89NrX1+Sdb78jb11+K4q9izDywdMPUgbFP+X7+999/yKqpo6BCbjWwCw1TIsTI//KYGB8mIeAB4HsYNriNto0vjTyMOC4pGpfvzh+XeHeYgECEJg2gcq+YPtAnsb7pHHaYAb0HhE6EK5rsxtonuIQgAAEOhFgTuqEi4unQgAROkpPKQH6D//jH8qXz7+MYk838ua33pQ3vvmGXFm7Et12bIN6FPTr33hdPv7+x7GrwN6CCLSvgfMUN1UxS0t9wwPognqOaidBoOWg3GH9185yGGseqmEBYB0CEIDA0hBAhA7sSgSfQIAUhwAEohJgToqKE2NjIYAIHdwTH332kfzJ8Z8MIkC3Oacipb/3e99Lo6Vf+p2XgtsRw4B+IOGzd5/JpRcuxTCLjREQaF0DcwHtJPFz++CpzIOd5pGX5d/Lazdle1vk4UNVSv3TDthUn/GmYdXmIZxpBVk0VXmNXqcW6alHXmv+lSg1UVzlVr82S/zQytT+ZrORuq1Fd1n8Lu3U/G5pm7Lr8DkBUEbNVplrg8VpQ11ri46tHnZajXLXfrOeDVC8eOhi40x2nu5LmfZfO9Q1aaQ9wl7xvHluPwDXcShsY9R+g82sDzfkQPnYNA60sVr2edkVm8nxCUfS9hm68ulwvXrGQuttb2ljxU/POSNlIR4Ritr9VpiejzvjnAX93kvLnWrtz8bbqYryvvIk6b9j2drdkNmsiP+ujptWlrZ+tvytffw2j72sr43fy3vT8neDeX2c6W1z3HfWcdZyCLFrXBaHMbewTmeDyv1Wry/GXKDP3fpYuvrYda/PpFgt6mMw+0vUvq71f8s4LxxquE/cbauOJ+e93NDf5lrQzqP93suB5mvxfHCndazV7436PNmxTZ5zFpe1E0CEDhwhCD6BACkOAQhEJcCcFBUnxsZCABG6d080pd+IkYLi+W+ep5HVf/7f/tzLv7EI0roITS5or66bzEWta2D54G2IbZa/z8XdbdnduSk3XjsvxdQiitoUbnUhqnaNIpgLvLZPf+sCcz1quyynCcq2v1U7qy4C+9TVqW2lmGeJNG9irjuZXHP9/KZ2eGxuZ0MXHVU7HsvVQgQ2hBdTpEz9P97K8nyqa/eORSlDW4XImuYBPZXNk41SWHbaMIU+T3ExE+r7i4TW8qZN88WCr29aPzgFpfRFwKGcbp7ISamyOYRrl58+M0shTDoEcqv/5dgSuX/9msy0MdXW3+e62F4IaeYLoWJ8WdrgErrMPg0ae0HjK7vXznbyl3I1W233XVb2eEt7KeF4seIcyx6sW1kVAq/2wqLPXNA+lvJQfM97rFK/j39t84yzzvrcaeVVvKzSROnKHOysJ21I7SVs7VZoegml3TvusZ+I+i33XmtfpS+QtLnXNU/6tMlnzuIaJwFEaCeifip+oFmKQwACEOhFABG6FzYKjZ0AInTvHjIP4FOGYgjQukOfffGZ/Nl/+bNUjJ5CrmlE6N7DafQF29bAUrA18j7PxeO2qF8zZcdaJmqlgckP5I7sJaJn8t+JOjePtDYi0pIo1N3dU5mdbcnu6SwtO4/WUtFzVUGvKjCLJaLYHmVcj8pU3VbYtqUkMe1Ur7G2LY0wc/lcxgx3Hzem8GiKGfr/W0VKTTxLRWiROztnci09gGpN7ilB+8G6HBYChY+NIBFaj47M+0IaxGmTllMQylNVHGzJ8a1ccHGWsSqndrG8uDQXCDe0rwiysSbNEdQVPyx+eowMvyjobAwnYeDaFw6acVv/1v6Wi6rJvXIi+QsMZcKrrNGQ2vh0RTIn0Z4Vkd0Yv05hsu/4MtKctN1nJYuiLUOJ0AYLnX96z7hYOX53zQX5VxeNY6lyP7T0a35deo+c7WRfxoTOM6772jlWHfeJd9s87+UmEboTj5bx8IrPfV/0kWue9GyTx5zFJW4CiNBuRq1XIPgEAqQ4BCAQlQBzUlScGBsLAUTo3j2hC64q//GHf/DhhaafUML0e3/xniihOuY/FVV9+zu3ReWi7voPEborselc37wGNud9rkcTz6+1fcqfRTkXkdGJoJh+Op7oX6moqcSgQswuxN3k/w9EbqWpO5QAuSNn19TBbrkYeV5ElNk5p/WlEV2Z0FTmszajtmypP2qRXc2Hvs3TihTXtLTN8jm37n3nA+Ss9jRRvhCSVWSzKYYV0ZM1fJrYq4SnoyvyRHtxkDHVRdv6Z/SleJ+KX7bfjVQALpEo8bGMjLwjsmeLkDbb4bCpUoGkKTJq7XEJZOZLElWxK5WCTeBzib+ZH1Y/XVNLOi6UtqylQbGVsYp72oXWCF1LnmmniFfYNMu2sGwcnzlrn/HbNvaMtnUaXz6ic3rvWO67FIU7TU6lu1z3R6NIeyjrSqRvvA/1FzuO+9hrLjDHuWXQNbbFrN+Yx6x96fLfNVb0382vLrSxahXxu7St471sHdtdedjmHH08tPSV1kft8+RNOS+i+s3oadccxe+9CCBC98I2L4TgEwiQ4hCAQFQCzElRcWJsLAQQoXv3xJgEFJtC1wAAGRVJREFU19iCtMrlrHI6d/334g9fFJVKRP0jHUdXeuO+vnkNbMpNPP97KZyWD862h2WbWJD97coTI2dzIaymkdcq+jbPMbt2r/IZ85ol17ONcmOO4NT+XGDV8z8354yei43teaXtbUvCwGv5qaOODFPgSdNnqCjmJhG6JfetLmCb/10RoR02giKhzU/Ci5cW7py9bSkMttLIej3K0jcSWst5XCSBtgq1eq/aog79IhEb/WwdNJZI28brffxoi6hUhvPUFBvb8vDUHGvuaMw0f7SNpZfwGjD2bPeKEu71SP8GbpUo3RSBEZ3fdt/lNmvpLtperHixcEVCd2Slt91nLogcCV2JfnZ9/eDFp2NUfUXYD4+E7nQvN7Yn72MvHu57r/0LiLMkn3v7PNmpTVEXutU1hggd2PcIPoEAKQ4BCEQlwJwUFSfGxkIAEbp3T0xRcFUC8dufvC3qMMW2f33Titz92V3Z++le9LQkvTuJgtEINK6BTbmJtUitMuq5Fj1cT2Ghp7woyhUisZkP2owKrh0CaPOhEIT0KMQKJdOnPOdtlgsk+/Rbi1Ks5ajWUpI0+a2qa2qbfiBh5ZCpSsRyk/Bf7W7F497akZZGoS4+1g7EM8SNesoGZeOerB3lh/TZOHa1EUmE7hSpahMGy7/pUfeGgOglZlXFHXdO6PxAtVP10iN7GeAsU45t86BID/HdNwpaF0Mbc9165oROBf0s1U6Z67gWnWvk3bVE74bmhM4EcW38OtNxzHn6j6+mSPC5Ldd9l+UF1iLVXS8yOo9Ld47jCis169UOsew+F8TMCW2m4HD616Gv06FfYermFda2ljnHtoq7ROhkEnHz0OepevvcOaFd86SjTfkcpqchirZhWWFDiNCBnY/gEwiQ4hCAQFQCzElRcWJsLAQQoXv3BIJrb3QUnCCBpjXQlvc5e37PI3q1NAT2nMpzQVaVM4XbIoqyzPOcaMDFNRWRNo+2LHJJl5GT1s/atdQbZl+0RmvXO84Uk21CdaPgrPlcbYs9tUdjupCm8WRJxVFLgyJz4bMuvGSGa5HihRhfEcY1JywCSauNIBFa/0S/7dN5C6RGIWcmFWFEv84l9mXA8oj8rM7N7W1JcsSUBzU2d9dlSTPLpP9a0ndkN1iaxqTRz8Y5xhKp7TEf2e5dW0qdrMEtYnrud/KJQyUVTumCdlBaPviaWfr0hWv8OoXJruOrLS2PQvOvZev4n8ms7b7Lx0/tJVRwJLSRzsJk3cYq76AYc0H7WCrGti0quZ4OpDpvOuYqZ193TLNjnIGQ3ZbFuje/qZz92Ode1l6w6rdvNx7u8dDYnvzsgvZ50jE/IUJ7zLzdL0GE7s6sUgLBJxAgxSEAgagEmJOi4sTYWAggQo+lJ/ADAqMmEL4G2g7uG3WTcQ4CEBiSgCXSecjqLsa2dvChUaES9PaSo1bnL8guxqO0lqVkfYH8lq0qxsOy9WjZHkTowK4N3+wGOkBxCEAAAhoB5iSGw1ISQIReym6lURCITSB8DdQO5VMHYaWn4PEPAhBYWQJLKYQhQq/seJ5Sw5fy3ptSBwznKyJ0INvwzW6gAxSHAAQggAjNGFh2AojQy97DtA8CUQgE78tr+aCjuIURCEBgqgQQwi6u52B9caynUBPjYQq91MtHROhe2OaFgje7gfVTfEEEKqcFq0830xNPiJhZUHdQLXMSY2DJCSBCL3kH0zwIxCHAvjwOR6xAAAIQgAAEIACBIQiEidCWgyScBxSkragmwzdPjR6ioUPZZLM7FNnx260cemA5NGH8LcDDZSTQOif1nrNNUuaBJo6DaRpBz3NvppdwHy3jkIzTJkToOByxAoElJ8C+fMk7mOZBAAIQgAAEIDBpAuEi9OG6PDi6Id4p05bshEk2u5Me/zgPgaUj4BShu87ZNUKZcHy8lZwYnifLTE8lPt7qthaIaScXpDcO5On+a0vXLzQokAAidCBAikNgNQiwL1+NfqaVEIAABCAAAQhMk8CFi9AqevRwfS5eTBPb3OvGzW4utp/UGphHDBY5bnY3ZDZ7mF9lRhMaUYKbu3WRxxLZuH3wVK4+viy3CrO6DyrS8Oa5XL92LFstdaei0kz3flN2iwNaUt/PZOfpvpRSke1vvX2biclNtUnXpSpRyKJxc/nW53fFTy9nsZHx2pADncnUBzf+T5LA8CJ0FgWdDPb5PZne6+pP2pzgotc4Z3S046qH35eDACL0cvTjiFrx6JeP5Ec//5G88c035M1vvTkiz3AlhAAidAg9ykIAAhCAAAQgAIFhCVywCK3Ei0M53TyRk1Jl1MTNYds6iPV2EbpFqC1Eau3z82o0YT0qMBVeZR4laBU+EzHo+vnNMkKxIp4WBJx111FV6nIJualmaxFlvX2rcjOjLK0ciihMl299fneJ0BxiM8i9hdF+BIYXofP7W4t87vVy0SZccwBFv05fhVKI0KvQyxfaxld/8qqcf3kul164JM/efXahdVPZcAQQoYdji2UIQAACEIAABCAQSiBchK6E2zoEZUsqjkyslHmUbWiLLrh8mAidRCMX0cWl0Jn/TVS0ccvvr1iiEW1tbxRd22xbDDkigatid6hvFhH6bCf7RN8qUqn6HstVFYXZR2SutU2PxM7HdNofuV+VOrIXK+sHW3J8y3jpcMFjkeogoAg4Reguc3YT0tqXHn1yQmfzxOmu9mVMKkyfTnY9YAQOSAARekC4q2n67s/uyt5P9+Sty2/J+999fzUhLGGrEaGXsFNpEgQgAAEIQAACS0MgTIQ2MDhTEjQKiMan3RPCG1WETg9sTARNJUzromfJw/zdEJJDRGi97jTBt5EKJLWtpxKpp8yo/h7im2nbTAViq1sXi12+uX6fi8llFPYdkb2aCH1TzovcuFee1FOUTGgc4+ryEOjyAO6cs61YtHkoPwygnx01zaiXO9r9uLkpmycb1VQ/y9M1tCSEACJ0CD3KQmBlCHRZA1cGCg2FAAQgAAEIQAACIyEQVYS2R6nqLbVFyHpGzY4EmOlGVBFaF+kXGgltiVBcYCR0ZVxZxXmtV6JEQmsRzUXKgAfrcmiI0Fu7pzKrRGgTCT3S23Sl3Or0AN4n/YWtTB87ll5JxezinlqpXqOxTgKI0E5EXAABCDi+BgIQBCAAAQhAAAIQgMBCCQSI0CpS9p6sHc0Pokpz9Z7qh+fVxUzzmt4RdAvFNq88nght5oAeOie0Hqls1GURlBaZE9p8uWHmhM6itvOxGFmEbo6EVtGbjgMRRzJGcWO1CDSL0P3m7Dq9bF5/aOazrxzMaXmR5eoGUnG4CK3274jQq93/tB4CngQ6vYj1tMllEIAABCAAAQhAAAJxCASI0CKpGPhQc2RTF6CTv9sOnkr/rJfrk0s0TuNjWAkToY20EJqok/lmpMQw+aor0pza5SmPaantg6ei0idnJrRcxkWDa/lc00JZzuXiX3nYXvaHze1tkaSvd3zyLpdVR/LNbFNtDGn+RxGh9X7RU5DoOaFnsuHiHGOAYQMCHQm0PYD3nbPrLuRCdPmDMY83zP01O5V5ZtprQcdu4vKuBBChuxLjegisJAFE6JXsdhoNAQhAAAIQgMBECASJ0K42KsHjcF07dMpVYIK/997sRvp8vReyRdbdy2EKQQACvgR6z0lJBbHm7Fh2fNvMdStAABF6BTqZJkIgnEDIGhheOxYgAAEIQAACEIAABNoIDChC1w+vWsau6L3ZXaQQvMi6l3EQ0CYIjIhA7zmpdjhp30atxtzflw7lehJAhO4JjmIQWC0C/dfA1eJEayEAAQhAAAIQgMAiCAwoQi+iORdfZ+/N7iKF4EXWffFdRI0QWCkCveeklaJEYydHABF6cl2GwxBYBAHWwEVQp04IQAACEIAABCDgR8BfhPazx1UQgAAEIAABCEBgMAJnv/qVrK+vD2YfwxCAwHQJIEJPt+/wHAIQgAAEIACB5SfQLkK/+KLI8+fLT4EWQgACEIAABCAwCQKI0JPoJpyEwEIIIEIvBDuVQgACEIAABCAAAS8C7SL03bsie3tehrgIAhCAAAQgAAEIDEng//7gB/I///RPh6wC2xCAwMQJ8KXExDsQ9yEAAQhAAAIQWFoC7SJ00mwiCtr7Hj5Le2/QMAhMkgBz0iS7Dac7EGCMd4DFpRBYMQLMDyvW4TQXAhCAAAQgAIFJEUCEDuwuNruBACkOAQhEJcCcFBUnxkZIgDE+wk7BJQiMhADzw0g6AjcgAAEIQAACEICAhQAidOCwYLMbCJDiEIBAVALMSVFxYmyEBBjjI+wUXILASAgwP4ykI3ADAhCAAAQgAAEIIELHHwNsduMzxSIEINCfAHNSf3aUnAYBxvg0+gkvIbAIAswPi6BOnRCAAAQgAAEIQMCPAJHQfpwar2KzGwiQ4hCAQFQCzElRcWJshAQY4yPsFFyCwEgIMD+MpCNwAwIQgAAEIAABCFgIIEIHDgs2u4EAKQ4BCEQlwJwUFSfGRkiAMT7CTsElCIyEAPPDSDoCNyAAAQhAAAIQgAAidPwxwGY3PlMsQgAC/QkwJ/VnR8lpEGCMT6Of8BICiyDA/LAI6tQJAQhAAAIQgAAE/AgQCe3HqfEqNruBACkOAQhEJcCcFBUnxkZIgDE+wk7BJQiMhADzw0g6AjcgAAEIQAACEICAhQAidOCwYLMbCJDiEIBAVALMSVFxYmyEBBjjI+wUXILASAgwP4ykI3ADAhCAAAQgAAEIIELHHwNsduMzxSIEINCfAHNSf3aUnAYBxvg0+gkvIbAIAswPi6BOnRCAAAQgAAEIQMCPAJHQfpwar2KzGwiQ4hCAQFQCzElRcWJshAQY4yPsFFyCwEgIMD+MpCNwAwIQgAAEIAABCFgIIEIHDgs2u4EAKQ4BCEQlwJwUFSfGRkiAMT7CTsElCIyEAPPDSDoCNyAAAQhAAAIQgAAidPwxwGY3PlMsQgAC/QkwJ/VnR8lpEGCMT6Of8BICiyDA/LAI6tQJAQhAAAIQgAAE/AgQCe3HqfEqNruBAIcs/um+XD5clwdHN+QV+VzuX98TuXMkN14ZslJsQ2CxBJiTFsuf2ocnwBgfnjE1QGCqBJgfptpz+A0BCEAAAhCAwCoQiCNCf35frl87lq0HpsCnhL9rMjvJUW7u5oLg8qBlszvuvvx0/7Lcepj7uH0gT/dfG7fDeAeBQAJec1LjnO2oXL3YKW+o4tptOXi6L93urE9l//ItKW5NkT42VP3GGsM9Hjh6plHca4xPoyl4CQEIRCbA/BAZKOYgAAEIQAACEIBARAJhInQqZMwk05g3ZdcQoVMBUArhLxcLNpZLCGSzG3E0YgoCEAgm0DonOeZsZ+WVrwucVzdckK0Fx1sP5Cj/LOHz+9fl2vFWx5eUpp3lXGP6Ul7mcqy7y9y7tA0CYQSYH8L4URoCEIAABCAAAQgMSSBMhC48s0bVZZFuSYiclMGnaRSd+lPXqLkhEYTZbgJoF1U00eTKk0TAP5MdnUXKMf+b/t+5i6nN2UbGryImzduwrfNO/lyJBNajDYs+292Q2awMFa73jSXysagj86cIc7e9iDCjHdU1ecSjpX1lK2y/OdikZbvwC+t2SkNgtAS8HsBDIqHLFDd9EURaG2zzxBKuMX0pL3O5xjHuuS5W2FjK6Oto6zrnqs+1jheONK2za9qeoGUfkEQAlC905l8H6F8XeHyV1uDD1cfa10Q6OPXVwc3z2j6msk9pHITN/lT3LJqBhq8cWq93+dfQf/qXGe59TkMjm/pU1D74VAvayObDU60P2/dtM2nt76a9Vduea8kmC681cMnaTHMgAAEIQAACEIDAVAgMJ0LbRI6+wseIaTZvdh1CS1ehtXygaRZxTeG7GomuNFot2rB4+NIe7Mzy1ofJxI/r5ze1B95559SvVwwey9VCaPcRkk0xuTDvU7btGpPfiMcUrkEghIDXA3jfuThKJLQxFyWNVXPV4boupHkQsAnOfdvlUR2XjIdAuwhdfbnrjLJPxsz+kyuyXxwW4BhD9ZfBLfWZ67xlHWpdZ82X1bZ9wN6xqM/RynRo6T16KpsnG/lL7voXAta9QfGCWxPGK2u9a8+iynmts25/Uhe6iqZ9/PMpYwx7H5HdtXfSx+S5Mfc5922u/kaEFq81cDzTGZ5AAAIQgAAEIACBlSKACB3Y3W2b3erDr/HpuOvhp/K7EnMPZf1gS45vOSKlz3ayvMfWB2lNFHa+JLCI6C5WZpva/t8WgVQI4l5sijQwyqk8FYw0RZJb+Lnawu8QmCgBrwfwxvlBz9NcANAiKmvRffU0TF7Yavd/n5zQ9QjCTATTowy9vOGiiRHoLEIX66JPO13ip+OFaLruV9bhQqS2rUOOddZnH6DO2905k2vpFwprck+9+H2wLoeVr6qMMzsq97/nWu9al8VznXXuPfJOcvWD2Zd9/HOWsQwYp18+PPP9YLJ3OREtDZHPvs2rvx37I5/7YMLXeK2BE24frkMAAhCAAAQgAIEpE0CEDuw9d/7V/OEvFUi1B0GbCJv6Uo90ThToLEpQj4qyltcEoUb7umBrHiaZP0Sq3N6mv1ZOxie1uv/qv5UP6oHp6Ia8Uvx/Y7oR7cEt/QRZf4gyxDDjIbAU+++I7NXs35TzIv+sLQVKYP9THAJjI+D1AG4VO7q3xCcqsG5Vm2fSiSGPjDYjMX3cMee5zU0tAtTHANdMkUC3dBw+L0r01FHmC5GWdc5rHc5E6OZ13Haoc94r2lrXWD5dY6/Ik/wQ6E2V1qG2VzBSfxWCsfdan6/nLSnErP7ZBpdVxK3PCbEjoZv5t6RFy2an6gHb5j7HbKPv3Nooxtv2Ptq+rWN/W/dHU7zpO/jstQZ2sMelEIAABCAAAQhAAALxCAwnQqcPOaubE7roouLTyoPkiMb5IY3uB7os5/OZbO2eyswWVdUYwaOL3uaDpzZwnNFIrmgeSxSi6ZP56X5rBFlAvuzis/xa9FcLv3j3EJYgMCoCXg/gvkKJq2V97DjnHlelzb9XolD7m6HkyAl0iYS2fxXU1kBdEHWsc57rcOM6btsn6a757AOKF736S9/aWjtsJHRz+yycfe9/Z8SxYbslqrn7PkqPXq/ma3aL4669k/I72++cbWzLw1MVwW55UW8bomYf633f9ILftj8a+f0d6p7XGhhaCeUhAAEIQAACEIAABHoRGFCEzg/Fk+TwmvRkwnoewF4ej6yQc7Nbfr5uRGO1PDClhxWWEVZaVFariKsQV6OtzdyCWR/ck7Wjwr7+YFrvH3euyuqDrXl9Lc9rm/95ezfUwYqWw5jaDh1sjoRWEUUN/EY2jnAHArEIOOekVAMxvszwqlybP/Lr0znmdHcuouSimn7IVt10HnVq5qOvREJbxD+Xj6TicBFamt9jitCf39+XJ1f2pUgJXbk3LF8EuXJC18u3r0PudbalvC5K6r1b2V+4czC7chinphv3LF3XWbc/jfW1jeA+/nntw9r3OTaXXDznL8vWUjH6eGueD9+5b9O/Lisqb9lbEQm9NNMeDYEABCAAAQhAAAJLQSBMhC6FUp1FxxPZJ47RLfjkD1yiCzVtD3R6zueZpKKs0vDNh0Ar+ySZh359UqZ2cnwl77Lx2afl9Pn6yfBaHUZ+2M3tbZGHknx6nKXAmLW12eJ/+hmxUgK8Hgx13y2HNeqito3fxMcd7kOgiYA7RZD5ubd/PubafLJpzGu2wwKtjurpD9QFhg++dipzkH87GD3TJtAtHUd9Xay0vpbn3Li+cZ3TXxZXeZbrsOc61LjO5qmpWvcBLlEy2zxUU0qY9226JUlyWc+SEw61f5X9RIvI2+hf4zBz++OOODaM9/HPtddQVbT1f8tt1MTz5rnivCEHlQObZyLF/se1b3P1d21v1XyY9bRngWbv3fvyZW057YIABCAAAQhAAALjJxAmQo+/fYN76N7s5p9d7mhi8uBeeVTQKxLSwy6XQAACCyXgnpOGc6/29UPPqmLZ6Vk9xUZOYJFjfORocA8CK0+A+WHlhwAAIAABCEAAAhAYMQFE6MDOcW52fSP6Av3oXBwRujMyCkBgCgScc9JgjbAcLtarrlh2elVOoQkQWNwYnwAcXITAihNgfljxAUDzIQABCEAAAhAYNQFE6MDuad/saoftlQknAyuMVRwROhZJ7EBgVAR4AB9Vd+DMAAQY4wNAxSQEloQA88OSdCTNgAAEIAABCEBgKQkgQgd2K5vdQIAUhwAEohJgToqKE2MjJMAYH2Gn4BIERkKA+WEkHYEbEIAABCAAAQhAwEIAETpwWLDZDQRIcQhAICoB5qSoODE2QgKM8RF2Ci5BYCQEmB9G0hG4AQEIQAACEIAABPqK0JCDAAQgAAEIQAACEIAABCAwdgLr6+tjdxH/IAABCEAAAhCAwEoSIBI6sNuJuAgESHEIQAACEIAABCAAAQhEIMC+PAJETEAAAhCAAAQgAIGBCCBCB4JlsxsIkOIQgAAEIAABCEAAAhCIQIB9eQSImIAABCAAAQhAAAIDEUCEDgTLZjcQIMUhAAEIQAACEIAABCAQgQD78ggQMQEBCEAAAhCAAAQGItC0V/v/yir2e/2aoLoAAAAASUVORK5CYII=;" vertex="1" parent="1">
          <mxGeometry x="30" y="141" width="769.67" height="180" as="geometry" />
        </mxCell>
        <mxCell id="pNY5TVdKX-9zsxYdDqCT-8" value="Потенциальная энергия деформации (в перемещениях)" style="rounded=0;whiteSpace=wrap;html=1;" vertex="1" parent="1">
          <mxGeometry x="30" y="350" width="120" height="60" as="geometry" />
        </mxCell>
        <mxCell id="pNY5TVdKX-9zsxYdDqCT-9" value="&lt;div align=&quot;left&quot;&gt;$$L(u,v,w) = \frac12 \int_0^L \left[ E A \left( \frac{d u}{d x} \right)^2 + E I_y \left( \frac{d^2 w}{d x^2} \right)^2&amp;nbsp;+ E I_z \left( \frac{d^2 v}{d x^2} \right)^2 \right] dx $$&lt;/div&gt;" style="text;html=1;align=left;verticalAlign=middle;resizable=0;points=[];autosize=1;strokeColor=none;fillColor=none;" vertex="1" parent="1">
          <mxGeometry x="170" y="365" width="850" height="30" as="geometry" />
        </mxCell>
      </root>
    </mxGraphModel>
  </diagram>
</mxfile>
